<?xml version="1.0" encoding="UTF-8"?>
<svg xmlns="http://www.w3.org/2000/svg" id="White" viewBox="0 0 999.5 999.5">
  <defs>
    <style>
      .cls-1 {
        fill: #8f8f8f;
      }
    </style>
  </defs>
  <path class="cls-1" d="m375.2,799.15c.6,4.8,1.5,8.7,2.4,11.3.9,2.6,2.2,5.3,4.1,8.1,1.8,2.8,4.2,5.5,7,8s5.5,4.2,8.1,5c1,.3,1.9.5,2.7.5.9,0,1.7-.2,2.4-.7,1.3-.8,2.2-2.4,2.7-4.7.9,2.1,1.9,4.3,2.8,6.4,3.3.9,6.5,1.8,9.8,2.7-2.5-12-4-23.5-4.3-34.7-.1-1.8-.1-3.5-.1-5.3v-4.8c-6.5-.7-12.9-1.5-19.3-2.4v6.3c0,1.8.1,3.5.2,5.3,1.1.2,2.2.4,3.3.6.2,3.1.5,6.2.9,9.3.5,3.7.7,6.1.5,7.3-.1.9-.6,1.4-1.4,1.4-.2,0-.4,0-.7-.1-1.1-.3-1.9-1-2.5-2.3-.6-1.2-1.2-3.6-1.7-7.1-.7-5.2-1.1-10.3-1.2-15.4v-5.4c0-1.8.1-3.5.2-5.3v-.6c.2-3.1.6-6.2,1.1-9.3.6-3.8,1.3-6.1,1.9-7,.5-.9,1.3-1.3,2.3-1.3h.1c1.2,0,1.8.6,1.8,1.7.1,1.1-.3,3.8-.9,8.2-.3,2.3-.6,4.6-.8,6.9,3.3.3,6.7.6,10,.9,2.2.2,4.3.4,6.5.6v-.6c.1-1,.2-2,.2-2.9.6-6.6,1-11.8.6-15.3-.3-3.5-1.7-6.5-4.1-9-2.3-2.3-5.4-3.4-9.6-3.4h-.8c-4.7.2-9,1.7-12.8,4.3-1,.7-2,1.4-2.8,2.1,1.6-29.1,6-44.2,9.5-53.3q0-.1.1-.2c.1-.3.2-.6.4-.9,0-.1.1-.2.1-.3.1-.2.2-.5.3-.7,0-.1.1-.3.2-.4.1-.2.1-.4.2-.6.1-.2.1-.3.2-.4.1-.2.1-.3.2-.4.2-.5.4-.9.5-1.3,0-.1.1-.2.1-.3,1.5-3.6,2.5-5.9,2.7-8.6v-.3c.2-3.1-.8-6.3-3.9-10.2l-2.5-3.1-4.4,2.1c-7.6,3.6-22.7,10.9-37,13.6-.4.1-.8.2-1.2.2-.3,0-.5.1-.8.1-2.8.4-5.6.7-8.3.7-4.4,0-8.2-.7-11.4-2.1h-.1c-.5-.2-.9-.4-1.4-.7s-.9-.5-1.4-.8h-.1c-7.9-5.4-11.3-17.3-10-35.4v-.2c2.3-16.1-6.2-23.4-14.4-30.5-8.3-7.2-16.9-14.5-17.4-33.4v-3.4c0-.2.1-.5.1-.7s0-.4.1-.6c0-.2.1-.5.2-.8,0-.2.1-.4.1-.6.1-.3.2-.5.3-.8.1-.2.1-.4.2-.5.1-.3.2-.6.3-.9.1-.2.1-.3.2-.5.1-.3.3-.7.5-1,.1-.2.1-.3.2-.5.2-.4.4-.8.6-1.1.1-.1.1-.2.2-.3.2-.4.5-.8.7-1.3,0-.1.1-.2.1-.2.3-.5.5-.9.9-1.4,0-.1.1-.1.1-.2.3-.5.7-1,1-1.5,2.1-3.2,4.6-6.5,7.2-9.9.5-.7,1.1-1.4,1.6-2.1,8.3-11,16.3-22.4,16.4-35.3v-3.3c0-.6,0-1.3-.1-1.9,0-.5,0-.9-.1-1.4,0-.6-.1-1.2-.2-1.8,0-.5-.1-1-.1-1.5-.1-.6-.2-1.2-.3-1.8-.1-.5-.1-1-.2-1.5-.1-.6-.2-1.2-.3-1.9-.1-.5-.2-1-.3-1.5-.1-.6-.3-1.2-.4-1.9-.1-.5-.2-1-.4-1.5-.2-.8-.4-1.7-.7-2.5-.1-.3-.2-.6-.2-.9-.3-1-.6-2.1-.9-3.1,0-.1-.1-.2-.1-.3-.3-1.1-.7-2.2-1.1-3.2,0-.1,0-.2-.1-.2-2.8-8.2-6.4-16.7-10.3-25.7-1.5-3.6-3.1-7.3-4.7-11.1-.4-1-.8-2-1.2-3-.4-1.1-.9-2.1-1.3-3.2-7.6-19.3-14.3-40.6-14.3-64.5,1.7-46.3,26-94.4,66.6-132,1.2-1.1,2.5-2.3,3.8-3.4.2-.2.4-.4.7-.6,1.1-.9,2.1-1.9,3.2-2.8.2-.2.4-.3.6-.5,1.1-1,2.3-1.9,3.4-2.9.1-.1.2-.2.4-.3,1.2-1,2.5-2,3.7-3q.1-.1.2-.1c5.4-4.2,11.1-8.2,16.8-11.9h.1c30.5-19.7,64.8-31.9,100.5-35.7,5.88-.6,11.76-1.02,17.67-1.2-.73-3.9-1.2-7.72-1.21-10.04-5.66.2-11.31.6-16.97,1.15-151.3,10.7-273,128.5-289.6,278.1-.1.6-.1,1.2-.2,1.7-.2,1.4-.3,2.8-.4,4.2-.1,1-.2,2-.2,3-.1,1.5-.2,3-.3,4.6-.1,1.7-.2,3.4-.3,5.1,0,.8-.1,1.7-.1,2.5-.1,1.6-.1,3.1-.2,4.7,0,.7,0,1.5-.1,2.2,0,2.3-.1,4.6-.1,6.9,0,2,0,3.9.1,5.9,0,1,0,2,.1,2.9,0,1,.1,1.9.1,2.8,0,1.4.1,2.7.2,4.1,0,.5,0,1.1.1,1.6.1,1.7.2,3.3.3,4.9v.7c8.6,119,83.5,219.6,188,265,0,3.9.2,7.8.6,11.8Z"></path>
  <path class="cls-1" d="m513.03,185.41c-.01,2.35-.49,6.17-1.21,10.06,9.64.42,19.19,1.44,28.68,3.09,35.8,6.2,69.9,20.9,99.7,43.1.1,0,.1.1.2.1,4.9,3.7,9.7,7.5,14.2,11.5.2.2.5.4.7.6,1.4,1.2,2.8,2.5,4.2,3.8,31.8,29.3,53.7,64.9,62.6,101,0,.2.1.3.1.5.3,1.1.5,2.3.8,3.4.1.3.2.6.2,1,.2.8.3,1.5.5,2.3.1.7.3,1.4.4,2.1.1.4.1.9.2,1.3.2,1,.4,2.1.5,3.1,0,.2.1.5.1.7.8,5.6,1.4,11.1,1.6,16.7v2.9c0,.8,0,1.6-.1,2.4v.5c-1.3,28.9-11.9,53.9-21.4,76.1-8.8,20.7-16.4,38.5-15.6,56v.1c.1,12.8,8.1,24.2,16.3,35.2.5.7,1.1,1.4,1.6,2.2,1.7,2.3,3.4,4.5,5,6.7.1.1.2.2.2.3.3.4.6.9.9,1.3.1.2.3.4.4.6.2.3.5.7.7,1,.2.2.3.5.5.7.2.3.4.6.6.9.2.2.3.5.5.7.2.3.3.5.5.8.1.2.3.5.4.7.2.3.3.5.5.8.1.2.2.5.3.7.1.3.3.5.4.8.1.2.2.4.3.7s.3.5.4.8c.1.2.2.4.2.6.1.3.2.5.3.8.1.2.1.4.2.6.1.3.2.5.2.8,0,.2.1.4.1.6.1.3.1.5.2.8,0,.2,0,.4.1.6,0,.2.1.5.1.7v3.2c-.5,18.9-9.1,26.2-17.4,33.4-8.2,7.1-16.7,14.4-14.4,30.5v.2c.2,2.3.3,4.4.3,6.5v3c0,.5,0,1.1-.1,1.6,0,.4,0,.9-.1,1.3,0,.3,0,.6-.1.8-.9,10.8-4.2,18.2-10,22.2-.5.3-.9.6-1.4.9-.5.2-.9.5-1.4.7h-.1c-3.2,1.4-7,2.1-11.4,2.1-2.7,0-5.5-.2-8.3-.7-.3,0-.6-.1-.8-.1-.4-.1-.8-.1-1.2-.2-14.3-2.7-29.5-10-37.1-13.6l-4.4-2.1-2.5,3.1c-3.1,3.9-4,7-3.9,10.2v.9c.3,2.5,1.2,4.8,2.5,8.1.2.5.4,1.1.7,1.7.1.1.1.3.2.4,0,.1.1.2.1.2,3.1,8,7.7,22.3,8.9,51.8-1.9,0-3.8-.1-5.6-.1,1.6,10.4,1.6,19.3,1.3,26.8,0,.7,0,1.5-.1,2.2-.1-.6-.2-1.3-.3-2-1-5.3-3.3-14-9.1-27.2-4.8-.1-9.7-.2-14.5-.3,4.6,10.2,8.5,20,11.5,29.5.2.8.5,1.6.7,2.4.5,1.6.9,3.2,1.4,4.8.4,1.7.8,3.3,1.2,4.9.6,2.5,1.1,5,1.5,7.4-.7,9.4-2.2,19-4.7,29.1,4.8-1.5,9.6-3,14.3-4.7,2.9-9.7,4.7-18.8,5.5-27.5,1.4-4.2,2.6-8.3,3.5-12.3,104-45.7,178.5-146.1,187-264.8v-.6c.1-1.6.2-3.3.3-4.9,0-.5,0-1.1.1-1.6.1-1.3.1-2.7.2-4,0-.9,0-1.9.1-2.8,0-1,.1-1.9.1-2.9v-5.8c0-2.2,0-4.4-.1-6.5.8-1,.7-1.7.7-2.5,0-1.4,0-2.8-.1-4.2,0-.9-.1-1.8-.1-2.7-.1-1.2-.1-2.4-.2-3.6-.1-2.2-.3-4.5-.5-6.7,0-.3,0-.6-.1-.9-12.4-146.7-125.7-264.6-270.3-284.2-9.62-1.62-19.3-2.69-29.07-3.14Z"></path>
  <path class="cls-1" d="m472.7,598.15c0-3.2,0-7.6-43.3-29.3-6.9-3.5-41.7-20.8-50.1-20.8-.4.1-33.5.8-41,9.8l-.5.6-.3.7c-10.5,26-3.8,64.9,25.1,82.2l1.2.7h1.4c29.5,0,94.4-28,105-38.7.6-.6,2.5-2.5,2.5-5.2Z"></path>
  <path class="cls-1" d="m443.4,841.75c5.4,1,10.8,1.8,16.2,2.5-2.2-11.5-4.1-22.8-5.6-34,0-1.7-.2-3.4-.4-5.1s-.4-3.4-.6-5.1c-.6-5.7-1-11.3-1.4-17-.6-10.1-.7-20.1-.4-30.2-7.6.1-15.2.3-22.8.5-3,10.1-5.4,19.9-7,29.7-.6,3.3-1.1,6.6-1.5,9.9-.2,1.7-.4,3.3-.5,5-.2,1.7-.3,3.4-.4,5.1-.8,11.1-.6,22.2.7,33.7,5.4,1.3,10.8,2.5,16.3,3.6-.5-5.3-.9-10.6-1.1-15.8,1.9.3,3.9.6,5.8.9.8,5.4,1.7,10.8,2.7,16.3Zm-2.3-78.6q-.1,0-.2-.1.1,0,.2.1Zm-7.4,45.8c0-.7.1-1.5.1-2.4,0-1.5.1-3.2.3-5.1.1-1.6.2-3.2.4-5,.4-4,.9-8.4,1.7-13.5.5-3.2,1.1-6.7,1.8-10.4-.1,3.6-.2,7.1-.2,10.4,0,5.1.2,9.9.5,14.3.1,1.8.2,3.5.4,5.2.2,1.8.3,3.5.5,5.2.1.6.1,1.3.2,1.9-1.9-.1-3.8-.4-5.7-.6Z"></path>
  <path class="cls-1" d="m430.3,447.15v-28.3c3.8-.3,7.6-.5,11.5-.8v-27.5c-3.8.2-7.6.5-11.5.8v-105.2c-17.8,1.3-35.5,3-53.2,5.2-11.5,36.5-23.1,73.2-34.6,110.1v27.5c15.8-2.5,31.7-4.6,47.6-6.4v28.3c13.4-1.5,26.8-2.7,40.2-3.7Zm-57.9-50c5.8-23.5,11.8-47.1,17.7-70.6v68.5c-5.9.6-11.8,1.4-17.7,2.1Z"></path>
  <path class="cls-1" d="m522.3,812.65c-.1,11.2-.3,22.4-.7,33.6,9.2-.5,18.5-1.5,27.6-2.8.6-6.2,1.1-12.3,1.4-18.3-4,.5-8,.9-12.1,1.2.3-5,.4-10.1.5-15.2,0-1.7.1-3.3.1-5,3.5-.2,7-.5,10.4-.7v-6c0-3.8-.1-7.6-.2-11.3-3.5.2-6.9.3-10.4.4,0-1.8-.1-3.7-.2-5.5-.1-4-.3-8-.5-12,3.6,0,7.3-.1,10.9-.2-.4-6-1-12.1-1.6-18.2-8.8-.1-17.5-.2-26.3-.3.4,10.2.7,20.4.9,30.6.1,6.6.2,13.1.2,19.7v10Z"></path>
  <path class="cls-1" d="m508.1,803.45v-20.4c0-10.2-.1-20.4-.2-30.6h-15.7c-.3,10.2-.5,20.4-.6,30.6-.1,6.8-.1,13.6-.1,20.4v10c.1,11.1.3,22.2.6,33.3,3.3.1,6.6.2,10,.2,5.2,0,10.5-.1,15.7-.4.2-6.3.3-12.6.4-18.9-3.3.1-6.7.2-10,.3-.1-4.8-.1-9.7-.1-14.5v-10Z"></path>
  <path class="cls-1" d="m574.5,838.85c4.9-1.1,9.8-2.2,14.6-3.5,1.5-7.6,2.7-15,3.4-22.3.6-6.7.6-10.7.4-12.1-.2-.3-.4-.8-.5-1.3-.3-1-.9-2-1.6-3-.3-.5-.8-1-1.4-1.4-1.2-.9-3-1.6-5.2-2.1,2.9-.7,5-1.9,6.4-3.5.3-.4.6-.8.8-1.2.6-1.2,1-3.1,1.2-5.5.1-2,0-4.5-.3-7.4-.8-6.9-2.6-11.9-4.8-15.1-2.3-3.2-4.9-5.2-7.7-6.1-2.8-.8-7.9-1.4-15.3-1.5-3.7-.1-7.4-.1-11.2-.2,1.3,10.1,2.1,20.2,2.6,30.2.2,5.1.4,10.2.4,15.3v5.1c0,1.7,0,3.4-.1,5.1-.2,11.4-1,22.8-2.3,34.4,5.3-.8,10.6-1.8,15.8-2.8,1.8-11.9,2.8-23.5,3.1-35.1,0-1.5.1-3,.1-4.5.5,0,.9-.1,1.2-.1,1.6,0,2.6.4,3,1.2.2.4.4,1.2.5,2.2.2,1.5.2,3.5,0,6.2-.5,9.5-1.5,19.2-3.1,29Zm2.7-55.8c-.1,1.4-.3,2.3-.8,2.7-.7.7-2,1.2-3.9,1.3-.1-1.3-.1-2.7-.2-4-.3-5-.7-10.1-1.3-15.1h.2c1.8,0,3,.4,3.8,1.2s1.4,2.6,1.6,5.3c.2,1.6.3,3.1.4,4.7.3,1.5.3,2.8.2,3.9Z"></path>
  <path class="cls-1" d="m560.8,285.25v161.1c14,.8,28,1.9,41.9,3.2v-69c5.7,23.6,11.3,47.2,16.9,70.8,14.4,1.7,28.8,3.6,43.1,5.9-8.7-30.8-17.5-61.5-26.2-92.1,8-23.2,16-46.3,23.9-69.3-13-2-26.1-3.8-39.1-5.3-6.2,20.1-12.4,40.3-18.6,60.6v-62.6c-13.9-1.4-27.9-2.5-41.9-3.3Z"></path>
  <path class="cls-1" d="m989.5,434.15h-63.7c-4.3-30.9-11.9-61.2-22.8-90.4l54.2-31.3c4.8-2.8,6.4-8.9,3.7-13.7l-56.1-97.1c-1.8-3.2-5.2-5-8.7-5-1.7,0-3.4.4-5,1.3l-52.8,30.5c-19.5-24.9-41.7-47.5-66.1-67.6l30.1-52.1c1.3-2.3,1.7-5,1-7.6-.7-2.6-2.4-4.8-4.7-6.1l-97.1-56.1c-1.5-.9-3.3-1.3-5-1.3-.9,0-1.7.1-2.6.3-2.6.7-4.8,2.4-6.1,4.7l-29.4,51.2c-7.12-2.84-14.31-5.47-21.56-7.91-1.17.92-2.39,1.65-3.57,2.08.56.24,1.1.53,1.61.85.68.43,1.32.92,1.93,1.49.97.86,1.18,2.31.5,3.44-.5.84-1.04,1.6-1.62,2.29,9.12,3.12,18.1,6.54,26.91,10.26l33.8-58.6,97.1,56.1-34.4,59.5c28.8,22.6,54.5,48.9,76.5,78.2l60.3-34.8,56.1,97.1-61.6,35.6c13.1,33.1,22.1,68.2,26.4,104.8h72.5v112.1h-74.1v-.1c-5.3,35.8-15.2,70.2-29,102.5l65.4,37.8-56.1,97.1-66.8-38.6c-21.9,27.5-47.1,52.2-75.1,73.5l39,67.6-97.1,56.1-39-67.6-.4-.7c-31.9,12.8-65.7,21.8-100.9,26.4v79.2h-112.2v-79.3c-35.2-4.7-69-13.8-100.8-26.7l-1.6,2.8-37.7,65.3-97.1-56.1,39.1-67.7c-27.9-21.3-53.1-46.1-74.9-73.7l-66.7,38.5-56.1-97.1,65.5-37.8c-13.7-32.3-23.5-66.7-28.7-102.5H9.9v-112.3h72.7c4.4-36.6,13.5-71.7,26.7-104.7l-61.5-35.5,56.1-97.1,60.5,34.9c22.1-29.2,47.9-55.5,76.7-78l-34.3-59.4,97.1-56,33.9,58.8c10.93-4.57,22.11-8.68,33.48-12.33-.34-.46-.67-.94-.96-1.42-.67-1.11-.48-2.52.45-3.39.52-.51,1.15-1,2.02-1.57.57-.35,1.14-.64,1.7-.88-1.5-.53-3.07-1.57-4.52-2.85-9.41,2.97-18.71,6.25-27.87,9.84l-29.6-51.2c-1.3-2.3-3.5-4-6.1-4.7-.9-.2-1.7-.3-2.6-.3-1.7,0-3.5.5-5,1.3l-97.1,56.1c-4.8,2.8-6.4,8.9-3.7,13.7l30,52c-24.5,20-46.8,42.6-66.3,67.4l-52.8-30.6c-1.5-.9-3.3-1.3-5-1.3-.9,0-1.7.1-2.6.3-2.6.7-4.8,2.4-6.1,4.7l-56.1,97.1c-1.3,2.3-1.7,5-1,7.6.7,2.6,2.4,4.8,4.7,6.1l54,31.2c-10.9,29.2-18.7,59.5-23,90.3H9.9c-5.5,0-10,4.5-10,10v112.1c0,5.5,4.5,10,10,10h65.5c5.1,30.3,13.3,59.9,24.7,88.3l-57.9,33.4c-2.3,1.3-4,3.5-4.7,6.1-.7,2.6-.3,5.3,1,7.6l56.1,97.1c1.3,2.3,3.5,4,6.1,4.7.8.2,1.7.3,2.6.3,1.7,0,3.5-.5,5-1.3l59.2-34.2c19.2,23.3,40.8,44.5,64.3,63.3l-34.7,60.2c-2.8,4.8-1.1,10.9,3.7,13.7l97.1,56.1c1.6.9,3.3,1.3,5,1.3,3.5,0,6.8-1.8,8.7-5l35.1-60.7c27.9,10.6,56.9,18.3,86.5,22.9v70.7c0,5.5,4.5,10,10,10h112.1c5.5,0,10-4.5,10-10v-70.5c29.6-4.5,58.6-12.1,86.5-22.7l35.2,60.9c1.3,2.3,3.5,4,6.1,4.7.8.2,1.7.3,2.6.3,1.7,0,3.5-.5,5-1.3l97.1-56.1c4.8-2.8,6.4-8.9,3.7-13.7l-34.7-60c23.6-18.7,45.3-39.9,64.5-63.1l59.4,34.3c1.5.9,3.3,1.3,5,1.3.9,0,1.7-.1,2.6-.3,2.6-.7,4.8-2.4,6.1-4.7l56.1-97.1c1.3-2.3,1.7-5,1-7.6s-2.4-4.8-4.7-6.1l-57.8-33.4c11.5-28.4,19.8-58,24.9-88.2h65.7c5.5,0,10-4.5,10-10v-112.2c-.1-5.5-4.6-10-10.1-10Z"></path>
  <path class="cls-1" d="m419.76,78.99c7.96-.18,16.64-.93,23.97-1.67.16-.02.31-.05.47-.07V9.85h112.1v67.5c5.08.68,10.14,1.47,15.16,2.33,5.39.46,11.09.85,16.46.96,1.76.04,3.37.06,4.9.06,7.53,0,13.85-.47,21.5-1.65-15.75-4.34-31.76-7.79-47.92-10.3V9.85c0-5.5-4.5-10-10-10h-112.2c-5.5,0-10,4.5-10,10v58.7c-14.18,2.16-28.25,5.06-42.14,8.64,8.24,1.34,14.85,1.86,22.8,1.86,1.54,0,3.14-.02,4.9-.06Z"></path>
  <path class="cls-1" d="m462.4,844.55c8.5,1,17.1,1.7,25.7,2.1-.2-6.3-.4-12.6-.5-18.9-3.4-.1-6.7-.3-10-.4-.2-4.8-.3-9.7-.3-14.6,0-1.7,0-3.3-.1-5v-5c0-6.6.1-13.1.2-19.7.3-10.2.7-20.3,1.4-30.5-5.2,0-10.5.1-15.8.2-1.1,10.1-1.8,20.2-2.2,30.3-.2,6-.4,12-.4,18v5c0,1.7,0,3.4.1,5,.2,11.1.9,22.2,1.9,33.5Z"></path>
  <path class="cls-1" d="m543.3,703.55l-2.2-10.8c-6.3-30.5-18.1-66.8-38.4-66.8-16.1-.1-29.3,22.9-38.4,66.3,0,.2-.1.3-.1.5l-2.5,10.8,40.9-21.3c10.4,4,30.8,15.7,31.1,15.8l9.6,5.5Z"></path>
  <path class="cls-1" d="m640.2,642.15h.7l.7-.2c15.3-4.4,29.1-35.8,30.1-43,.6-4.3,1.7-33.4-4.7-41l-.2-.3-.3-.2c-6.9-6.2-16.2-8.6-26.3-8.6-14.8,0-31.5,5-45.3,10.6-25.2,10.1-50.6,25.8-60.7,35.2l-1.6,1.4v2.2c0,3.4,2.3,6.5,14.3,13.1,7.6,4.2,17.7,8.9,28.5,13.3,12.8,5.3,44.7,17.5,64.8,17.5Z"></path>
  <path class="cls-1" d="m536.3,297.05c-3.5-4.6-8.7-8.5-15.7-11.7-6.9-3.2-14.7-4.8-23.3-4.8h-.4c-10.8.1-20.1,2.5-27.7,7.2-7.6,4.7-12.7,10.8-15.3,18.3-2.6,7.5-3.8,18.6-3.8,33.4v56.2c0,11.3.8,19.6,2.4,24.7,1.6,5.1,4.3,10,8.1,14.5,3.8,4.5,8.9,7.8,15.3,9.9,6.3,2,14.2,3,23.6,3h.4c7.3,0,13.9-1,19.9-3,5.9-2,11-5.4,15.2-10.1s7-9.8,8.3-15.3,2-14.4,2-26.6v-53.7c0-12.2-.6-21.1-1.8-26.7-1.2-5.6-3.7-10.8-7.2-15.3Zm-31.4,107.3c0,7.9-.5,13-1.4,15.2-.9,2.2-2.9,3.4-5.9,3.4h-.1c-3,0-4.9-.9-5.8-2.8-.9-1.9-1.4-7.5-1.4-16.9v-78.6h.1c0-8.3.5-13.6,1.5-15.9s2.9-3.5,5.9-3.5h.1c3,0,5,1.1,5.8,3.2.8,2.2,1.2,7.5,1.2,16.1v79.8Z"></path>
  <circle class="cls-1" cx="553.3" cy="530.7" r="17.35" transform="translate(-148.74 838.79) rotate(-67.5)"></circle>
  <circle class="cls-1" cx="595.61" cy="513.35" r="17.35" transform="translate(-102.01 150.58) rotate(-13.28)"></circle>
  <circle class="cls-1" cx="639.49" cy="500.75" r="17.35"></circle>
  <path class="cls-1" d="m193.72,722.26c19.74-8.24,30.02-29.43,23.68-50.01-.74-2.39-1.69-4.71-2.82-6.94-.08-.16-.13-.32-.18-.48-.66-1.13-1.31-2.25-1.97-3.38-.6-.82-1.17-1.65-1.77-2.46-10.68-14.46-28.82-20.31-45.56-14.77-12.62,4.18-21.34,12.57-26.1,25.01-.54,1.41-.93,2.86-1.4,4.33-.03-.03-.09-.05-.12-.11-2.86-4.92-5.71-9.85-8.57-14.77-6.35,3.69-12.7,7.38-19.05,11.07,6.86,11.81,13.72,23.61,20.59,35.42.18-.08.37-.16.55-.26,5.4-3.14,10.8-6.27,16.2-9.4.36-.21.49-.38.36-.83-2.59-9.19.69-19.25,8.17-25.17,10.36-8.2,25.18-6.7,33.56,3.45,4.56,5.53,6.07,11.96,4.8,18.93-1.73,9.5-7.35,15.94-16.52,18.79-9.1,2.84-17.27.65-24.19-5.96-.26-.25-.45-.3-.78-.11-5.46,3.18-10.91,6.36-16.37,9.53-.14.08-.28.2-.41.3,6.86,11.81,13.72,23.61,20.59,35.42,6.35-3.69,12.7-7.38,19.05-11.07-1.79-3.08-3.59-6.16-5.37-9.26-1.01-1.74-2.02-3.47-3.03-5.21-.08-.14-.17-.29-.31-.53.26.05.42.08.57.12,8.99,2.35,17.82,1.93,26.41-1.66Z"></path>
  <path class="cls-1" d="m667.74,144.25c-4.97-1.99-9.93-4-14.88-6l-1.14,13.43c4.69.52,9.36,1.04,14.04,1.56,0,1.25.02,2.58.1,3.96.06,1.13.16,2.2.27,3.22l-13.2.96,1.93,10.65c4.51-.92,9.02-1.86,13.53-2.78.34.91.72,1.86,1.16,2.84.41.94.84,1.81,1.26,2.63l-11.91,7.5,7.28,9.37,25.25-31.86c-1.21-1.65-3.83-5.72-4.29-11.58-.44-5.56,1.3-9.79,2.19-11.64-9.55-6.01-19.11-12.01-28.66-18.01l-5.54,12.06c4.89,3.03,9.77,6.07,14.65,9.1-.38.65-.76,1.41-1.13,2.23-.37.83-.67,1.62-.9,2.35Z"></path>
  <path class="cls-1" d="m732.05,178.88c4.85,3.1,9.7,6.18,14.55,9.28l8.47-10.22c-9.54-6.02-19.08-12.04-28.63-18.06-1.28,1.6-4.34,5-9.55,7.01-5.49,2.12-10.28,1.51-12.3,1.14l-17.81,36.55,11.6,2.51,1.62-13.97c.92.02,1.9.03,2.92,0,1.08-.03,2.1-.1,3.06-.19,1.12,4.46,2.23,8.94,3.34,13.4l10.44-2.87-4.84-12.32c.97-.34,1.98-.72,3.02-1.15,1.28-.52,2.49-1.08,3.62-1.62,2.49,4,4.98,7.98,7.48,11.99l11.61-6.84c-3.95-3.61-7.9-7.21-11.85-10.83.56-.53,1.14-1.14,1.72-1.83.58-.69,1.1-1.36,1.52-1.99Z"></path>
  <polygon class="cls-1" points="699.33 147.17 698.05 142.01 689.85 143.76 691.79 152.4 696.44 151.52 698.92 153.1 668.03 194.5 664.61 217.07 683.17 204 707.4 158.46 710.06 160.06 711.12 164.69 719.43 162.82 717.62 154.33 712.5 155.46 709.74 153.71 719.38 135.47 726.45 134.73 726.7 118.42 712.07 125.74 714.52 132.49 702.24 149 699.33 147.17"></polygon>
  <path class="cls-1" d="m313.18,114.68c.1-.42.27-.83.41-1.24-.07-.05-.16-.09-.23-.14-4.42,3.4-6.83,8.34-9.62,12.91,1.02.62,2.05,1.06,2.87,1.77,1.65,1.45,3.29,2.94,4.75,4.59,1.8,2.03,3.43,4.22,5.12,6.35.44.55.32.85-.36,1.08-.25.07-.5.14-.86.24.34.3.57.54.83.73,3.16,2.31,4.8,5.44,5.12,9.31.01.22.11.45.23.64,1.66,2.81,2.76,5.84,3.19,9.09.08.56-.08,1.15-.12,1.73-.01.33-.12.68-.04.99,1.06,4.36,1.6,8.78,1.02,13.27-.07.66-.24,1.33-.34,1.9-2.34-.75-4.59-1.58-6.9-2.17-2.34-.61-4.76-.57-7.29-.2.45,1.41.81,2.75,1.29,4.04,1.87,5.04,3.92,10.01,4.75,15.37.03.21.11.42.18.61.08.17.2.33.4.63.16-.6.26-1.04.39-1.46.36-1.21.68-2.43,1.11-3.62.19-.54.54-1.06.93-1.47.66-.69,1.64-.45,1.96.44.18.54.35,1.08.43,1.63.27,1.98.61,3.94.73,5.94.39,6.37.18,12.69-2.28,18.71,0,.02.03.03.05.09.09-.07.19-.13.26-.2,3.64-3.93,7.19-7.92,10.39-12.22,3.69-4.94,6.93-10.11,7.99-16.35.03-.2.38-.45.61-.47.99-.11,1.79.4,2.45,1.04.91.9,1.76,1.88,2.62,2.83.37.39.73.81,1.09,1.2.07-.02.14-.05.21-.07.12-.95.31-1.9.36-2.85.34-7.45-.21-14.86-1.39-22.23-.17-1.07.1-1.48,1.17-1.5.55,0,1.14.1,1.65.29.92.36,1.79.84,2.67,1.26.18.09.36.17.53.25.08-.04.14-.09.22-.13-.93-7.87-3.79-15.06-7.86-21.89,1.72-.22,3.44-.28,5.14.21,1.71.48,3.04,1.6,4.36,2.75.28-.84.21-1.62-.24-2.73-.73-1.79-1.81-3.35-3.07-4.79-4.8-5.53-10.28-10.29-16.48-14.18-.05-.02-.07-.09-.12-.18.9-.82,1.99-1.06,3.11-1.23,2.9-.43,5.76-.22,8.61.37l.64.14c-.05-.18-.13-.24-.22-.31-5.26-3.89-11.11-5.67-17.66-5.02-1.12.12-2.23.25-3.36.31-1.02.06-1.27-.28-1.01-1.28.26-1.09.93-1.95,1.75-2.66.89-.76,1.84-1.44,2.77-2.16-.04-.08-.08-.15-.12-.2-.13.01-.26.03-.4.04-3.56.55-6.93,1.66-10.08,3.41-1.06.59-2.12,1.22-3.21,1.74-.86.41-1.46.08-1.69-.85-.1-.4-.15-.86-.08-1.26.17-.95.42-1.91.67-2.87Z"></path>
  <path class="cls-1" d="m259.87,177.83c-.63.66-1.38,1.25-1.85,2-2.34,3.79-4.7,7.58-6.88,11.46-1.66,2.96-3.09,6.06-4.55,9.12-.33.7-.44,1.52-.58,2.31-.11.66.15,1.22.83,1.33.75.12,1.52.1,2.27.06.99-.05,2-.3,2.99-.25,1.07.05,2.13.29,3.19.51,2.84.58,5.71.87,8.61.58,3.5-.36,6.98-.88,10.47-1.32.13-.01.25-.07.48-.14-.3-.23-.54-.37-.74-.55-.68-.58-1.41-1.1-2.01-1.76-.93-1.02-.76-1.85.49-2.45.76-.36,1.57-.62,2.36-.94.69-.26,1.38-.55,2.16-.85-.25-.21-.38-.33-.53-.45-.45-.38-.93-.72-1.33-1.14-.79-.81-.71-1.32.32-1.85.6-.31,1.25-.52,1.88-.76.84-.31,1.7-.61,2.53-.89-.53-.69-1.06-1.28-1.49-1.95-.49-.74-.3-1.19.55-1.5.38-.13.77-.22,1.15-.34.63-.18,1.25-.36,1.9-.54l-3.6-4.65c4.44,1.45,8.57,3.4,13.32,2.75-.32.55-.16.39-.9,1.05-1.31,1.19-3.04,1.82-4.81,1.75-.39-.02-.8-.04-1.25-.05.69,1.05,1.32,1.99,1.91,2.94.68,1.11.54,1.71-.66,2.23-1.09.48-2.24.86-3.36,1.28-.26.1-.53.19-.94.33.58.22.98.35,1.37.53.38.17.78.34,1.13.57,1.15.73,1.19,1.59.01,2.25-.95.54-2,.92-3.03,1.29-.76.29-1.56.44-2.51.72,1.7.65,2.91,1.62,3.9,2.92.09.12.43.15.61.1,2.72-.72,5.46-1.39,8.15-2.23,3.7-1.14,4.03-1.45,5.61-5,1.38-3.14,2.67-6.31,4.03-9.45,1.4-3.23,2.84-6.46,5.04-9.25,3.03-3.84,6.96-5.51,11.82-4.39,1.91.44,3.72,1.29,5.56,1.95.23.09.46.2.68.3-.17-1.28-.35-2.47-.49-3.69-.18-1.66-.29-3.32-.48-4.97-.2-1.73-.66-3.41-1.48-4.97-.19-.37-.41-.72-.63-1.11.38-.08.69-.14.98-.21.02-.12.05-.16.04-.21-.76-3.47-1.73-6.88-3.51-10.01-.02-.02-.02-.05-.03-.08-.22-.86-.14-1.89-.55-2.64-1.07-2.02-2.31-3.97-3.5-5.93-.12-.21-.42-.33-.68-.44-.79-.31-1.52-.71-2.1-1.49.59,0,1.05,0,1.71.02-.58-.91-1.03-1.7-1.56-2.43-3.3-4.66-7.31-8.61-11.95-11.93-4.4-3.15-9.18-5.49-14.54-6.51-.25-.05-.52-.14-.77-.21.28.78.62,1.33.92,1.9.29.56.56,1.14.8,1.72s.44,1.17.75,1.95c-6.11-5.43-13.48-6.02-21.06-6.64.24.58.41,1.02.57,1.4-.75.08-1.49.17-2.32.27.15.22.18.28.24.33.43.37.86.72,1.3,1.08,3.59,3.01,6.99,6.2,9.66,10.09.67.98,1.26,2.04,1.8,3.1,1.5,2.97,1.49,5.99.28,9.06-1.08,2.74-2.56,5.28-4.2,7.72-2.77,4.14-5.61,8.21-8.35,12.36-1.68,2.55-3.15,5.23-4.04,8.17-.35,1.14-.54,2.32-.81,3.49.26.06.37.11.48.13,1.04.26,1.21.74.56,1.6-.4.52-.89.97-1.34,1.45Zm13.12-12.63c-.29,2.74-.56,5.47-.85,8.22-.02.16-.14.37-.27.44-1.49.72-2.99,1.43-4.59,2.04,1.91-3.56,3.8-7.13,5.71-10.69Zm-14.92,29.86c-.99-.34-1.06-1.48-.39-1.98.49-.38,1.19-.28,1.56.2.54.72.07,1.98-1.17,1.78Zm.07-5.83c.19-1.23,1.5-1.38,2.03-.67.37.48.27,1.18-.22,1.56-.67.52-1.69.17-1.81-.89Zm1.94,2.4c.33-1.5,2.37-1.23,2.26.32-.4,1.38-2.25,1.12-2.26-.32Zm4.7-2.63c.37.48.27,1.22-.23,1.57-.7.5-1.83.08-1.79-1.05.26-1.13,1.52-1.21,2.02-.52Zm-1.92-2.52c.36.51.25,1.2-.23,1.57-.49.38-1.18.29-1.55-.21-.38-.49-.27-1.18.22-1.56.48-.37,1.2-.27,1.56.2Z"></path>
  <path class="cls-1" d="m216.98,282.81c.18-.44.21-.94.24-1.44.01-.34-.23-.64-.57-.7-.48-.07-.99-.14-1.46-.06-10.97,2.04-21.9,4.14-32.86,6.15-1.43.26-2.15.9-2.69,2.19-1.21,2.94-2.42,5.9-3.65,8.83-1.22,2.93-2.46,5.88-3.68,8.82-1.22,2.93-2.46,5.88-3.68,8.82-1.22,2.93-2.46,5.88-3.7,8.81-.44,1.06-.59,1.94.13,3.02,6.24,9.29,12.41,18.63,18.67,27.93.4.59,1.21,1.31,1.74,1.24.56-.08,1.17-.96,1.44-1.61,2.81-6.6,5.54-13.23,8.33-19.83.28-.67.59-1.46,1.14-1.85,3.56-2.52,7.03-5.29,11.42-6.28,2.49-.57,5.02-.96,7.53-1.45,1.34-.27,1.72-1.13.83-2-5.01-4.86-7.05-10.99-7.73-17.7-.11-1.18.05-2.36.51-3.45,2.63-6.49,5.39-12.94,8.04-19.42Z"></path>
  <path class="cls-1" d="m176.7,285.93c-5.2-4.22-10.32-8.54-15.47-12.84-2.62-2.19-2.61-2.19-4.09.93-.46.96-1.06,1.88-1.6,2.82-.75,1.32-1.9,1.99-3.41,2.24-3.55.57-3.63.66-1.75,3.89,1.65,2.85,2.08,5.69.32,8.54-1.75,2.84-3.65,5.59-5.59,8.29-.83,1.16-.9,1.99.36,2.83.81.52,1.51,1.22,2.32,1.74,4.49,2.9,5.48,6.98,4.01,11.86-.4,1.35-.95,2.68-1.54,3.96-.67,1.44-1.53,2.79-2.22,4.22-.64,1.35-.08,2.17,1.34,2.01,3.74-.4,7.47-.82,11.19-1.34.62-.09,1.33-.64,1.56-1.2,2.56-5.95,5.04-11.95,7.54-17.93-.02,0-.03-.01-.05-.02l7.43-17.79c.33-.8.61-1.43-.34-2.21Z"></path>
  <path class="cls-1" d="m148.58,290.29c.94-1.63.88-3.5-.14-5.06-1.16-1.79-2.56-3.43-3.98-5.03-.22-.26-1.19-.18-1.56.08-1.04.78-1.97,1.69-2.9,2.6-5.73,5.56-11.47,11.1-17.14,16.7-.43.42-.67,1.43-.49,2.01,2.23,7.53,4.52,15.03,6.89,22.5.22.71,1.13,1.59,1.81,1.67,2.97.34,5.99.49,8.98.56,2.79.07,4.93-1.31,6.34-3.64.94-1.55,1.8-3.17,2.42-4.87,1.99-5.6,1.27-8.17-3.21-12.06-1.42-1.21-2.88-2.36-4.41-3.6.39-.53.73-.96,1.02-1.44,2.14-3.47,4.33-6.9,6.37-10.42Z"></path>
  <path class="cls-1" d="m143.89,258.34c-3.18-3.01-8.22-3.05-11.32.04-2.95,2.95-3.15,6.22-.39,9.05,3.52,3.65,7.45,6.78,12.29,8.61,1.26.53,2.49,1.1,3.78,1.56,2.69.98,5.23-.68,6.48-4.41.3-.9.29-2.35-.25-3-3.42-4.05-6.76-8.21-10.59-11.86Z"></path>
  <path class="cls-1" d="m103.57,304.1c-.35,2.33-.6,4.7-.6,7.06-.01,2.8,1.6,4.51,3.76,5.07,5.39,1.83,10.43,2.54,15.56,2.54,1.58,0,2-.58,1.56-2.19-1.14-4.11-2.33-8.19-3.58-12.27-.16-.53-.6-1.24-1.07-1.38-3.91-1.3-7.91-2.02-12.05-1.82-1.9.07-3.28,1.05-3.58,3Z"></path>
  <path class="cls-1" d="m122.23,268.83c-1.89,1.98-3.17,4.3-3.78,6.94-.61,2.66.19,4.73,2.48,6.17,1.77,1.11,3.67,2.05,5.92,3.3.14.06.3.12.45.19.39.16.83.33,1.32.53.08.03.14.06.22.09.19.08.39.16.59.26.03.01.06.03.09.04.12.05.24.12.37.17,1.03.56,1.82.47,2.65-.34,2.46-2.34,4.95-4.66,7.43-6.96.04-.04.06-.07.1-.11.03-.02.06-.05.07-.08.04-.06.08-.1.11-.14,0-.02.04-.04.04-.06.05-.07.09-.13.13-.18,0-.02.01-.03.02-.05.04-.04.05-.09.08-.15,0-.02.02-.05.03-.06.01-.03.03-.08.05-.11.01-.03.02-.05.01-.07.01-.03.01-.07.02-.1,0-.02,0-.05.01-.07,0-.04.01-.07,0-.11,0-.02,0-.05,0-.08,0-.04-.01-.06-.01-.1,0-.02-.01-.06,0-.08,0-.04-.01-.06-.01-.1,0-.02-.02-.04-.02-.08,0-.02-.03-.07-.04-.09,0-.02-.02-.04-.04-.07-.02-.03-.03-.07-.05-.09,0-.02-.03-.05-.04-.07-.02-.03-.05-.06-.07-.1-.02-.03-.03-.05-.06-.08s-.07-.06-.09-.09c-.02-.03-.04-.04-.07-.06-.04-.04-.08-.07-.12-.11,0-.02-.04-.04-.05-.06-.07-.06-.12-.11-.19-.17-1.87-1.48-3.62-3.13-5.6-4.45-2.3-1.56-4.71-2.94-7.17-4.24-1.76-.92-3.4-.47-4.78.99Z"></path>
  <path class="cls-1" d="m108.94,287.71c-2.2,5.27-1.55,6.83,4.53,9.35,1.15.35,3.16,1.04,5.2,1.51.58.15,1.47-.14,1.92-.56,2.62-2.42,5.16-4.95,7.75-7.41,1-.96.75-1.63-.3-2.27-3.5-2.16-7.14-3.95-11.23-4.74-4.39-.86-6.14,0-7.86,4.12Z"></path>
  <path class="cls-1" d="m88.45,514.28c-2.49.43-4.77-.25-6.77-1.68-1.32-.96-2.45-2.2-3.67-3.31-.17-.16-.4-.38-.6-.37-1.05.04-2.1.15-3.17.23,0,.18.02.34.04.5,1.26,6.41,2.51,12.84,3.76,19.25.08.43.29.59.71.65,7.17,1.14,14.04,3.34,20.64,6.36,10.89,4.99,20.2,11.99,27.42,21.64.07.08.09.21.16.38,2.05-1.8,3.95-3.49,5.93-5.24-.82-.9-1.54-1.79-2.36-2.58-2.32-2.28-4.96-4.17-7.67-5.94-7.61-4.97-15.68-9.08-23.9-12.91-.27-.13-.53-.25-.83-.39.2-.41.38-.76.55-1.1s.35-.68.54-1.03c.23.08.41.13.57.19,7.29,2.83,14.48,5.9,21.48,9.39,5.6,2.81,11.11,5.78,16.06,9.67.07.06.15.07.3.15-.03-.25-.06-.43-.11-.6-1.02-3.93-2.05-7.86-3.11-11.78-.09-.32-.35-.66-.63-.83-9.36-5.99-19.33-10.71-29.88-14.17-.22-.07-.45-.15-.71-.24.3-.83.58-1.58.85-2.33.04-.11.09-.2.18-.38,9.55,2.86,19.03,5.81,28.13,10.12-.09-.33-.12-.54-.19-.76-.82-3.18-1.69-6.34-2.49-9.52-.15-.61-.43-.88-1.03-1.06-4.73-1.38-9.44-2.8-14.17-4.22-.41-.12-.79-.3-1.36-.5.39-.21.62-.38.87-.46.61-.2,1.22-.41,1.86-.5,5.09-.72,10.17-1.38,15.26-2.09.47-.07.67.11.85.53,2.82,6.4,5.66,12.8,8.48,19.19.22.49.52.76,1.01.92,2.16.72,4.3,1.48,6.44,2.22.3.1.6.2.93.3,2.28-3.7,4.54-7.34,6.8-11-.32,0-.54.08-.76.19-2.34,1.11-4.69,2.23-7.03,3.32-.21.09-.52.21-.69.12-1.62-.79-3.21-1.63-4.92-2.51.86-.65,1.66-1.18,2.38-1.81.75-.64,1.51-1.01,2.5-.76.23.06.47.03.73.03-.02-.14-.02-.19-.05-.22-.56-.73-1.1-1.46-1.68-2.18-.39-.51-.72-1.26-1.23-1.41-.51-.15-1.19.28-1.8.49-.89.28-1.77.59-2.68.89-1.19-3.03-2.33-5.96-3.51-8.96,1.74-.35,3.38-.65,5.01-1.02.51-.11.84,0,1.22.35,4.21,3.93,8.44,7.84,12.66,11.76.17.17.36.33.62.54,1.47-2.4,2.92-4.74,4.39-7.11-4.34-3.01-8.63-5.96-12.9-8.93.01-.04.03-.1.1-.15.15.03.3.06.45.11,4.88,1.36,9.76,2.73,14.64,4.1.47.12.73.1,1-.36,2.03-3.33,4.08-6.65,6.15-9.96.22-.35.19-.59.01-.92-1.87-3.37-3.72-6.75-5.54-10.15-.26-.48-.49-.63-1.06-.5-4.89,1.12-9.8,2.2-14.7,3.28-.18.04-.36.06-.54.08-.01-.04-.03-.08-.04-.12,4.44-2.73,8.88-5.47,13.33-8.21-1.37-2.5-2.68-4.91-4.02-7.35-.28.23-.48.37-.68.53-4.17,3.47-8.35,6.9-12.47,10.42-.96.81-1.78,1.12-2.99.68-1.25-.46-2.6-.72-3.97-1.07,1.35-2.97,2.65-5.85,3.98-8.76,1.38.56,2.64,1.08,3.93,1.57.19.07.56.11.66,0,1.02-1.13,2-2.29,3.1-3.55-.32,0-.47-.04-.62-.02-1.13.19-2.02-.19-2.82-1.01-.63-.64-1.37-1.17-2.14-1.82,1.77-.79,3.39-1.53,5.03-2.23.18-.08.48.03.69.13,2.2,1.17,4.4,2.36,6.6,3.55.31.17.62.33,1.06.57-.08-.22-.1-.31-.14-.38-1.94-3.58-3.91-7.16-5.86-10.75-.21-.36-.42-.38-.78-.28-2.33.7-4.66,1.38-7.01,2.03-.49.14-.75.39-.99.84-3.14,6.22-6.31,12.43-9.45,18.66-.25.49-.5.63-1.05.54-3.32-.6-6.66-1.1-9.97-1.75-2.19-.43-4.37-1.03-6.54-1.58-.37-.09-.69-.35-1.03-.52.49-.32.92-.47,1.37-.58,4.81-1.17,9.62-2.33,14.45-3.47.44-.1.68-.28.83-.75,1.02-3.24,2.07-6.46,3.11-9.7.06-.18.08-.37.14-.62-9.3,3.81-18.91,6.26-28.62,8.6-.3-.99-.57-1.87-.85-2.78.28-.09.47-.15.67-.2,10.71-2.87,20.89-7.04,30.55-12.48.43-.24.69-.53.84-1.01,1.19-3.76,2.4-7.51,3.61-11.27.08-.23.14-.48.23-.82-.24.13-.38.21-.5.29-2.7,1.59-5.32,3.34-8.12,4.77-9.76,5.01-20.04,8.78-30.44,12.2-.12.04-.26.05-.43.07-.32-.74-.64-1.44-.95-2.16.29-.12.5-.21.71-.3,5.18-2.27,10.41-4.47,15.54-6.86,4.99-2.32,9.86-4.92,14.32-8.17,1.67-1.22,3.16-2.71,4.72-4.09.17-.16.3-.38.46-.59-1.85-1.81-3.65-3.58-5.48-5.38-.18.2-.33.35-.45.5-3.37,4-7.16,7.56-11.4,10.63-11.34,8.2-24.02,12.87-37.87,14.52-.54.07-.71.28-.83.76-1.54,6.25-3.13,12.51-4.7,18.77-.06.2-.08.4-.13.64.52.07,1.02.05,1.47.19,1.43.45,2.39-.12,3.39-1.15,2.01-2.05,4.44-3.37,7.38-3.6,3.82-.31,7.66,2.7,8.13,6.42.24,1.82-.94,3.14-2.76,3.12-1.24-.02-2.49-.12-3.72-.02-1.66.15-3.35.27-4.95.71-3.36.9-5.05,3.34-4.85,6.81.09,1.43.32,2.87.59,4.29.75,4.04,1.67,8.05,3.45,11.79.5,1.02,1.2,1.95,1.88,2.86.39.51.97.8,1.76.82.01-.43.02-.81.03-1.2.04-2.07,0-4.13.14-6.19.07-1.03.36-2.08.77-3.04.57-1.31,1.85-1.7,3.11-1.05,2.55,1.34,3.97,3.47,3.99,6.36.03,3.54-2.7,6.61-6.35,7.25Zm-5.14-16.75c-.03.26-.19.52-.38.97-.26-.39-.48-.61-.57-.87-.49-1.34-.63-2.72-.39-4.12.05-.23.26-.45.39-.66.17.18.43.34.52.56.5,1.32.63,2.72.43,4.12Z"></path>
  <path class="cls-1" d="m774.6,310.65c.2.13.39.17.58.19,19.86,2.63,39.73,5.28,59.6,7.91.38.05.63.18.81.55,3.55,6.93,6.53,14.09,8.81,21.53.66,2.19,1.22,4.4,1.81,6.61.06-.04.11-.07.17-.11.83-.79,1.64-1.6,2.49-2.38,4.08-3.78,8.16-7.56,12.26-11.33.25-.22.55-.4.85-.53,6.04-2.34,12.09-4.7,18.15-7.04.21-.08.42-.12.62-.18.06-.04.11-.07.17-.11-2.31-2.07-4.64-4.1-6.9-6.21-1.37-1.28-2.65-2.67-3.96-4.01-.07-.07-.12-.15-.29-.33,2.89.25,5.65.51,8.42.75,0-.04.03-.08.04-.11-4.45-2.83-8.89-5.64-13.33-8.47,0-.04.02-.07.03-.11.18,0,.35,0,.52.01,10.46.39,20.95.79,31.41,1.18.29,0,.59-.02.9-.02-4.76-7.63-9.52-15.24-14.27-22.84-.15.01-.29.04-.45.04-11.01.16-22.03.32-33.05.5-.44,0-.67-.12-.84-.53-.93-2.08-1.93-4.14-2.84-6.24-2.67-6.22-4.92-12.58-6.46-19.16-.02-.08-.06-.17-.1-.29-.1.08-.14.1-.19.15-4.92,4.54-9.84,9.1-14.76,13.64-.2.19-.47.35-.72.46-4.93,1.93-9.87,3.83-14.81,5.76-1.38.55-2.76,1.07-4.22,1.65,3.22,2.6,6.17,5.38,9.01,8.28,2.84,2.91,5.56,5.93,8.18,9.18-4.21.33-8.29.66-12.37.99,0,.04,0,.08,0,.12,3.67,2.37,7.35,4.73,11.02,7.1,0,.04-.02.07-.04.12-15.42,1.09-30.82,2.19-46.23,3.29Zm89.54,4.05c.24.03.51.18.68.34,2.9,3.06,5.79,6.12,8.67,9.2.06.07.12.15.21.27-.19.08-.33.16-.48.22-4.3,1.81-8.61,3.62-12.91,5.43-1.06.45-1.77,1.31-2.59,2.02-3.07,2.65-6.12,5.34-9.17,8.01-.07.06-.15.11-.31.22-2.38-7.21-5.28-14.15-8.7-21.03,5.73.76,11.35,1.5,16.97,2.25,0-.04.04-.07.04-.11-4.11-2.83-8.23-5.67-12.46-8.57.24,0,.35-.03.47,0,6.52.57,13.05,1.16,19.57,1.75Zm-51.64-31.62c-.07-.07-.13-.16-.24-.28.3-.14.57-.26.83-.38,4.17-1.76,8.35-3.53,12.54-5.26,1.04-.44,1.74-1.28,2.55-1.98,3.08-2.66,6.15-5.36,9.22-8.04.07-.06.17-.12.24-.18,1.23,3.25,2.39,6.51,3.7,9.7,1.3,3.2,2.74,6.32,4.13,9.54-2.61.04-5.24.08-7.85.11-2.62.04-5.24.08-7.91.23,5.59,3.48,11.2,6.96,16.8,10.45,0,.04-.02.07-.03.11-.3.01-.62.03-.92.06-6.21.49-12.41.99-18.61,1.49-.36.03-.58-.07-.81-.35-4.23-5.36-8.73-10.47-13.63-15.23Z"></path>
  <path class="cls-1" d="m838.37,511.44c2.63.49,5.26.31,7.88-.07,4.24-.61,8.35-1.72,12.42-3,8.06-2.53,16.17-4.91,24.42-6.76.86-.2,1.73-.38,2.59-.57-.14-.15-.28-.18-.41-.22-7.45-1.57-14.78-3.61-22.05-5.83-4.93-1.5-9.8-3.11-14.88-4.05-3.11-.57-6.25-.95-9.41-.52-4.32.6-6.89,3.01-7.75,7.28-.11.56-.2,1.13-.3,1.69,0,1.07,0,2.15.01,3.2.08.45.16.9.23,1.34.65,4.19,3.11,6.73,7.26,7.51Z"></path>
  <path class="cls-1" d="m890.86,460.69c1.85-3.18,4.1-6.08,6.51-8.86.13-.15.24-.31.42-.53-2-.11-3.82.13-5.59.73-3.42,1.17-6.05,3.41-8.12,6.3-1.34,1.88-2.47,3.91-3.72,5.86-.22.34-.6.59-.9.87-.24-.39-.49-.78-.73-1.17-.02-.05-.03-.11-.03-.17-.01-1.22-.13-2.45,0-3.65.37-3.44,1.44-6.72,2.73-9.92.08-.2.15-.4.25-.67-.11.03-.17.05-.22.07-2.62,1.68-5.07,3.55-7.15,5.89-1.88,2.12-3.4,4.48-3.87,7.31-.22,1.31-.13,2.66-.21,4-.01.2-.13.54-.24.55-.2.02-.46-.09-.63-.23-.15-.11-.26-.33-.32-.53-.23-.77-.49-1.54-.63-2.32-.64-3.8-.67-7.61-.45-11.45.01-.18,0-.37,0-.55-.07-.01-.11-.02-.15.02-.14.06-.28.11-.41.18-4.47,2.19-6.9,5.86-7.58,10.71-.24,1.72-.25,3.47-.4,5.2-.03.37-.21,1-.39,1.03-.39.07-.9-.09-1.25-.32-.42-.28-.78-.69-1.08-1.1-.47-.67-.96-1.35-1.27-2.1-.82-1.96-1.56-3.95-2.28-5.94-.28-.76-.45-1.56-.7-2.49-.39.57-.73,1.02-1.02,1.5-1.54,2.56-1.94,5.4-2.09,8.31-.17,3.27.9,6.05,3.05,8.45.72.8,1.49,1.58,2.2,2.41.6.69,1.21,1.39,1.7,2.16,1.54,2.41,1.24,5.12-.73,7.21-.14.15-.28.3-.46.49,2.58.96,5.11,1.91,7.63,2.86.1-.67.16-1.27.3-1.87.63-2.73,2.07-4.79,4.93-5.48,2.95-.71,5.56-.08,7.52,2.39.62.77,1.15,1.62,1.78,2.39.62.76,1.22,1.55,1.97,2.15,2.37,1.87,5.49,1.26,7.06-1.3.2-.33.39-.67.54-1.01.49-1.14,1.01-2.27,1.45-3.43,2.78-7.51,7.34-13.67,13.71-18.52,4.41-3.34,9.22-5.99,14.27-8.24.17-.08.34-.16.52-.24-.24-.13-.45-.14-.65-.13-2.42.13-4.86.17-7.27.42-6.69.69-13,2.47-18.3,6.91-.32.28-.71.69-1.16.39-.48-.32-.28-.86-.1-1.26.48-1.13.96-2.25,1.57-3.31Z"></path>
  <path class="cls-1" d="m889.39,536.33c.45-.3.84.11,1.16.39,5.28,4.45,11.58,6.22,18.28,6.92,2.41.25,4.84.3,7.27.42.21.01.41,0,.65-.13-.17-.08-.34-.16-.52-.24-5.05-2.25-9.86-4.9-14.27-8.24-6.35-4.84-10.91-11.02-13.69-18.52-.44-1.16-.95-2.3-1.45-3.43-.15-.34-.34-.68-.54-1.01-1.57-2.56-4.7-3.17-7.06-1.3-.76.6-1.35,1.39-1.97,2.15-.63.77-1.16,1.62-1.78,2.39-1.96,2.47-4.57,3.1-7.52,2.39-2.86-.69-4.29-2.74-4.93-5.48-.14-.6-.2-1.21-.3-1.87-2.53.95-5.05,1.89-7.63,2.86.18.2.32.34.46.49,1.97,2.09,2.27,4.8.73,7.21-.49.77-1.1,1.47-1.7,2.16-.71.83-1.48,1.61-2.2,2.41-2.16,2.4-3.23,5.18-3.05,8.45.15,2.92.55,5.75,2.09,8.31.29.48.63.93,1.02,1.5.25-.93.42-1.73.7-2.49.72-1.99,1.47-3.97,2.28-5.94.31-.75.8-1.44,1.27-2.1.3-.41.65-.83,1.08-1.1.36-.23.86-.39,1.25-.32.18.03.36.67.39,1.03.15,1.73.16,3.48.4,5.2.68,4.86,3.11,8.52,7.58,10.71.14.07.28.13.41.18.03.02.08.01.15.01,0-.18.01-.37,0-.55-.22-3.83-.2-7.65.45-11.45.14-.78.4-1.55.63-2.32.06-.2.17-.41.32-.53.17-.14.44-.25.63-.23.11.01.23.36.24.55.08,1.33-.01,2.69.21,4,.47,2.84,1.99,5.19,3.87,7.31,2.08,2.34,4.53,4.21,7.15,5.89.05.02.1.03.22.07-.1-.26-.17-.47-.25-.67-1.3-3.2-2.37-6.48-2.73-9.92-.13-1.21-.01-2.43,0-3.65,0-.06.01-.13.03-.17.24-.39.49-.78.73-1.17.3.29.68.53.9.87,1.25,1.94,2.38,3.97,3.72,5.86,2.07,2.89,4.7,5.13,8.12,6.3,1.77.61,3.59.85,5.59.73-.18-.22-.3-.38-.42-.53-2.41-2.78-4.66-5.68-6.51-8.86-.61-1.06-1.09-2.18-1.57-3.31-.17-.4-.38-.94.1-1.26Z"></path>
  <path class="cls-1" d="m848.12,715.34c.84-1.96,2.47-2.77,4.54-2.24,1.37.35,2.54,1.05,3.54,2.06,2.13,2.15,3.79,4.65,5.43,7.17.74,1.13,1.44,2.3,2.15,3.44.08-.25.06-.47.04-.7-.97-8.62-1.94-17.23-2.93-25.86-.51-4.46-1.06-8.89-1.61-13.34-.03-.24-.1-.59-.27-.68-1.61-.89-2.51-2.38-3.29-3.93-2-3.95-3.24-8.15-3.87-12.53-.06-.43-.07-.87-.05-1.31.03-.59.35-.89.95-.79.47.06.93.24,1.38.41.32.11.6.28.91.41.05-.03.09-.08.15-.12-.7-2.62-1.29-5.28-2.12-7.87-1.44-4.48-3.91-8.27-7.89-10.96-.18-.12-.31-.41-.34-.64-.17-1.01-.28-2.04-.44-3.06-.7-4.53-2.09-8.89-3.63-13.19-.23-.61-.4-1.26-.51-1.9-.14-.81.31-1.26,1.1-1.07.66.15,1.28.44,1.91.71.5.21.96.45,1.44.68-.02-.34-.1-.6-.25-.81-.68-.89-1.33-1.8-2.09-2.61-.72-.78-1.58-1.44-2.37-2.15-.89-.56-1.78-1.14-2.72-1.72-1.01-.44-2-.9-3.02-1.29-4.15-1.59-8.46-2.02-12.87-1.62-.05.01-.11.03-.26.08.16.18.31.32.43.48,1.04,1.38,2.09,2.76,3.1,4.16.14.2.11.52.16.79-.28-.01-.56.05-.82-.01-.49-.1-.96-.36-1.45-.38-.46-.03-.93.14-1.4.22,0,.08-.01.16-.01.23.14.15.3.3.42.47.76,1.07,1.55,2.11,2.26,3.22.27.43.4.98.49,1.49.16.84-.21,1.2-1.05,1.15-.35-.01-.7-.1-1.05-.08-.48.04-.96.16-1.5.26,1.15,2.11,2.82,3.78,3.42,6.21-1.32-.15-2.39-1.03-3.71-.49.38.68.71,1.31,1.09,1.92.67,1.14,1.39,2.23,2.06,3.37.23.39.45.81.61,1.23.35.87.16,1.14-.78,1.25-1.01.12-2.02.25-3.21.39.31.33.46.5.62.68,1.8,1.99,3.1,4.26,3.72,6.87.79,3.36,0,6.29-2.41,8.78-1.84,1.89-3.89,3.49-6.27,4.63-.37.17-.76.33-1.24.53.01-.14.02-.2.03-.26.84-4.6.66-9.22.16-13.84-.2-1.87-.44-3.75-.61-5.63-.17-1.94-.31-3.89.26-5.98-.44.11-.79.19-1.21.28-.68-2.16.77-3.73,1.68-5.63-.64.12-1.18.21-1.81.32-.14-2.31.89-4.3,2.09-6.46-.76-.02-1.35-.02-2.07-.03-.03-2.52,1.02-4.86,1.7-7.4-2.21.2-3.95,1.28-5.62,2.52-.14.21-.28.44-.42.66-.33,2.94-.68,5.88-.95,8.83-.22,2.35-.34,4.73-.5,7.08-.73,10.26-1.77,20.46-4.39,30.44-.65,2.43-1.17,4.9-1.68,7.37-.18.92-.22,1.87-.18,2.81.04.86.45,1.08,1.32,1.07.45,0,.93.07,1.34.24,1.54.65,2.25,1.9,2.36,3.51.13,1.85-.21,3.65-.8,5.38-1.48,4.4-3.04,8.79-4.61,13.16-2.4,6.74-4.53,13.57-5.67,20.66-.04.25-.06.5-.1.75.89-.83,1.61-1.77,2.42-2.62,1.59-1.66,3.12-3.41,4.85-4.9,1.76-1.52,2.86-1.18,3.66,1,.64,1.73,1.14,3.52,1.53,5.31,1.39,6.34,2.15,12.77,2.91,19.2.02.24.07.46.1.69.21-.19.31-.4.39-.61.95-2.62,1.88-5.24,2.84-7.86,2.31-6.26,4.56-12.55,7.6-18.5.74-1.45,1.74-2.78,2.67-4.12.41-.6,1.11-.8,1.76-.48,1.04.48,2.19.93,3.01,1.68,1.66,1.49,3.24,3.1,4.65,4.82,3.72,4.55,6.76,9.57,9.88,14.53,1.65,2.62,3.33,5.22,5.02,7.81.25.38.58.72.88,1.07.1-.18.09-.28.06-.38-.44-2.58-.96-5.15-1.31-7.73-.7-5.22-1.16-10.47-.75-15.75.13-1.69.36-3.36,1.04-4.94Zm-13.87-91.7c1.68-.06,3.87,1.85,3.79,3.34-1.51-.9-2.98-1.71-3.79-3.34Zm11.46,39.97c-.4-.42-.76-.93-.93-1.48-.39-1.2-.75-2.43-.96-3.68-.28-1.65-.43-3.33-.63-5,.08-.03.14-.06.22-.09.37.41.75.8,1.08,1.18,1.47,1.91,2.43,4.06,2.86,6.43.12.68.14,1.41.05,2.09-.13.95-1.01,1.23-1.68.54Z"></path>
  <path class="cls-1" d="m520.05,941.34l.98-.65-3.6-15.21,1.57-.96-6.47-19.66,1.69-.96c.22-.17.29-.48.16-.74l-5.12-9.1v-1.31l9.32-1.47v-.82l-8.35-.98,7.03-14.72-20.78-15.05-20.31,15.22,6.95,14.2-8.58,1.33v1.31l8.67,2.12s-5.23,8.51-5.07,9.65c.16,1.15,2.61,1.8,2.61,1.8,0,0-5.39,13.75-5.72,15.38s.16,2.12.16,2.12c0,0-4.09,9.98-3.76,11.12.33,1.14,1.31,1.14,1.31,1.14,0,0,1.15,9.65,2.3,9.98,1.14.33,3.11-3.11,3.11-3.11v-6.87s4.42-10.96,4.42-8.51,1.8,3.11,1.8,3.11l-.8,16.14.97.33.34,10.51.65.27.45,7.26,3.44.43.31-7.59,1.07-.04v-10.63l1.25.16,1.6-15.54v18.98l1.19.04-.11,10.59h.93l.22,6.88h3.54l.82-7.37h.82l-.33-10.14h1.14l.33-14.72,2.12,11.45h.98l.33,8.67.98.16.82,8.18,3.11-.49.16-7.69h.98l-.98-9.65,1.14-.16-1.31-15.05,3.23,12.01,1.45-.06,1.17,7.91.99.07,1.19,5.93,2.86-1.56-.42-5.17.52-.31-1.5-8.19Z"></path>
  <path class="cls-1" d="m372.24,82.81c1.24.97,2.54,1.7,3.74,1.9,1.7.29,3.62.52,5.73.75l13.97,1.15,4.66.38,20.32,1.67c.41.01.92.12,1.44.33.25,0,.5-.01.75-.02l-.16-.98,2.37.02c.67,0,1.34,0,2.02,0,3.59,0,7.29-.09,11.05-.25,1.22-.14,2.45-.29,3.7-.44,3.86-.47,7.95-.81,11.67-.81.42,0,.84,0,1.25.01.41-.04.81-.08,1.22-.13.6-.13,1.2-.19,1.8-.19,1.46,0,2.84.4,3.98,1.12,2.2.56,3.84,1.45,4.58,2.77,1.49,2.66,3.09,3.77,2.77,7.06-.26,2.77.29,3.8-.49,5.8-.63,1.69-.86.43-1.34,2.2-.42,1.57-.61,2.27.22,4.18.23.29.43.6.6.93.18.36.3.71.39,1.04,0,.02.02.03.03.05.6,1.11,1.32,2.26,2.09,3.39.66.58,1.08,1.24,1.34,1.88,1.79,2.4,3.63,4.49,4.82,5.57.12.11.26.15.39.15.02,0,.04-.01.07-.02-.74-2.85-1.62-6.37-2.09-10.2-.87-4.59-1.29-10.03-.06-15.18,1.29-5.29,6.2-5.92,7.06-12.49.86-6.52-18.3-6.78-21.81-6.78s-22.56,2.79-39.13,3.28c-.46.01-.92.03-1.38.04-1.72.04-3.36.06-4.95.06-9.25,0-16.75-.69-27.44-2.64-5.5-1-11.85-2.34-19.73-4.08-.15-.03-.29-.05-.41-.05-2.21,0,1.1,5.5,4.97,8.53Z"></path>
  <path class="cls-1" d="m461.72,89.88c-.23-.26-.49-.5-.77-.7-.88-.64-2-.98-3.19-.98-.48,0-.98.06-1.48.17-.5.05-1.02.1-1.52.15-2.7.28-5.47.54-8.29.76-2.79.2-5.51.35-8.19.47-3.84.17-7.59.26-11.22.26-.68,0-1.36,0-2.03,0,.04.26.1.55.18.88.26,1.03.77,2.34,1.79,3.55,1.39,1.65,3.17,2.47,4.81,2.88,4.58-.3,10.79-.88,17.22-1.97,4.54-.91,8.93-1.89,13.11-2.94.34-.09.57-.46.49-.8-.14-.51-.43-1.14-.91-1.72Z"></path>
  <path class="cls-1" d="m466.86,95.48c-.37-1.09-1.17-1.63-1.43-1.8-4.43,1.23-9.26,2.37-14.49,3.34-.42.08-.85.15-1.27.22-6.28,1.09-12.65,1.73-18.05,2.07-.4.03-.8.05-1.19.08.03.06.07.13.1.19.22.49.35,1.03.39,1.59.04.44,0,.84-.05,1.22.11.32.22.65.34.98,1,2.54,3.8,4.26,7.06,4.32,3.32-.94,6.72-1.94,10.18-3.06,6.46-2.09,12.58-4.29,18.33-6.55.11-.26.54-1.34.09-2.6Z"></path>
  <path class="cls-1" d="m464.78,101.4c-5.32,2.34-11.21,4.63-17.73,6.66-3.29,1.03-6.46,1.92-9.52,2.66-.01.11-.04.43,0,.86.04.04.07.06.11.1.88.92,1.48,2.12,1.76,3.36,1.07.7,2.49.85,3.44.85.56,0,.95-.05,1.02-.06,1.97-.4,3.03-.71,5.26-1.43,6.66-2.17,11.29-5.43,15.09-8.23.29-.83,1.2-2.14.86-3.75-.09-.37-.17-.71-.29-1.03Z"></path>
  <path class="cls-1" d="m442.76,119.07c-.11,2.46,1.6,4.95,3.49,5.86.48.23,1.06.3,1.61.3.76,0,1.48-.14,1.85-.19,1.83-.97,3.14-1.77,5.06-2.94,4.14-2.54,7.79-5.17,11.03-7.75.14-.13.28-.27.41-.4l.34-.34c.08-.31.18-.88.04-1.56-.06-.28-.15-.58-.3-.89s-.34-.57-.54-.79c-.51-.58-1.08-.85-1.26-.93-3.14,1.97-6.8,4-10.95,5.92-3.63,1.66-7.63,2.69-10.78,3.72Z"></path>
  <path class="cls-1" d="m469.12,116.12c-.08-.07-.16-.14-.25-.2-.4-.26-.79-.43-1.14-.54-.03,0-.06-.02-.09-.03-.16.16-.34.33-.5.5-1.87,1.86-4.07,3.82-6.64,5.79-3.69,2.8-7.23,4.89-10.35,6.46-.46.23-.6.8-.34,1.23.71,1.11,2.29,3.06,4.92,3.66.54.12,1.05.16,1.52.16.77,0,1.43-.12,1.92-.25,2.49-2.06,5.15-4.4,7.86-7.38,1.92-2.09,3.03-4.15,4.49-6.09-.07-.31-.05-1.06-.32-1.84-.18-.51-.5-1.04-1.05-1.47Z"></path>
  <path class="cls-1" d="m471.87,121.44c-1.83,2.97-3.77,5.17-6.69,8.46-1.14,1.29-3.6,3.2-5.09,4.49-.34.29-.29.8.11,1,.83.4,2.14.89,3.06,1.09,1.08.22,2.24.54,2.75.54.09,0,.15,0,.2-.03.69-.46,1.49-2.14,2.2-2.72,4.03-3.32,5.66-7.03,6.78-10.03-.17-.37-.49-.89-.94-1.4-.89-.91-1.86-1.26-2.37-1.4Z"></path>
  <path class="cls-1" d="m475.3,129.79c-1.94,2.94-4.2,5.43-6.2,8,.51,1.14,1.6,1.92,2.83,2,.07,0,.13,0,.19,0,1.32,0,2.22-.81,2.38-.95.19-1.51.58-3.4,1.37-5.46.17-2.13.81-4.22,2.12-6.12-.07-.09-.14-.18-.23-.26-.34-.29-.74-.37-.91-.37-.6.94-.91,2.17-1.54,3.14Z"></path>
  <path class="cls-1" d="m421.66,90.98c-.51-.28-.99-.33-1.11-.33-10.23-.84-20.47-1.68-30.7-2.52-2.74-.23-5.48-.45-8.22-.68-.59-.05-1.17-.1-1.76-.14-.07,0-.15,0-.24,0-1.28,0-3.54.24-5.79,1.63-.66.43-1.23.86-1.69,1.32-.26.23-.29.63-.11.91.33.56.76,1.18,1.27,1.81.28.35.57.69.9,1.05,1.52,1.57,3.06,2.54,4.2,3.12.34.01.74.02,1.16.04l.37-.22h.58c1.94.06,3.69.08,5.34.08.65,0,1.31,0,1.98-.01,1.93-.02,3.85-.07,5.78-.15,5.82-.4,10.5-1.12,19.42-2.6,1.97-.32,4.96-.42,8.59-.55.35-.07.7-.13,1.05-.2.19-.15.31-.36.29-.63-.06-.43-.2-.94-.63-1.4-.21-.24-.44-.4-.66-.53Z"></path>
  <path class="cls-1" d="m423.41,95.43c-.52.1-1.04.2-1.56.29-8.69,1.62-18.1,2.77-28.16,3.15-1.93.07-3.88.13-5.85.15-.67,0-1.33.01-1.99.01-1.81,0-3.6-.03-5.38-.07-.09.05-.21.13-.35.22-.73.5-1.99,1.53-2.14,2.98-.26,2.34,2.34,5.29,6.72,5.86,9.43-1.57,19.61-3.92,30.36-7.26,3.75-1.17,7.32-2.37,10.81-3.66,0-.2-.03-.6-.29-1-.4-.66-1.06-.83-1.23-.86-.31.06-.63.12-.94.18Z"></path>
  <path class="cls-1" d="m428.13,103.86c.12-.14.49-.62.69-1.34.09-.34.15-.74.11-1.18-.03-.37-.11-.69-.23-.94-.09-.21-.23-.36-.4-.47-.18-.12-.39-.18-.61-.18-.12,0-.24.02-.36.06-6.18,1.89-9.89,3.69-18.27,5.69-8.12,1.94-15.61,3.46-22.36,4.35-.23.17-3.52,1.77-3.29,4.35.23,2.48,3.61,5.31,7.63,5.31.43,0,.87-.03,1.32-.1,9.81-4.17,19.64-8.43,29.5-12.81,2.09-.86,4.17-1.8,6.26-2.72Z"></path>
  <path class="cls-1" d="m397.26,126.97c.61,0,1.25-.08,1.91-.24.11-.03.2-.09.31-.11,7.2-2.63,10.41-4.66,14.15-6.29,1.58-.7,3.43-1.56,5.42-2.55.26-.15.52-.3.78-.45,2.29-1.32,4.65-2.68,7.71-4.23.44-.27.87-.53,1.31-.81,1.09-.69,2-1.32,2.8-1.86.71-.49.91-1.49.43-2.2-.23-.34-.51-.69-.86-1.03-.6-.57-1.23-.94-1.74-1.17-.21-.09-.43-.14-.64-.14-.33,0-.65.1-.93.31-3.09,2.2-5.77,2.86-7.69,3.8-7.72,3.83-11.95,4.29-20.98,8.92-2.32,1.17-4.2,2.26-5.55,3.06-.4.26-.69.66-.77,1.14-.14.91.09,1.49.17,1.72.55,1.28,2.17,2.13,4.18,2.13Z"></path>
  <path class="cls-1" d="m406.68,136.15c1.09,0,1.98-.16,2.57-.3,7.69-4.55,7.75-4.6,7.75-4.6,13.61-8.15,10.61-8,15.55-10.18,1.97-.86,4.43-1.74,4.92-3.75.08-.36.1-.77.07-1.2-.08-1.03-.51-2.17-1.36-3.06-.18-.18-.36-.33-.54-.46-.39-.29-.76-.49-1.03-.63-.71.31-1.89.83-3.29,1.49-1.01.48-1.93.93-2.81,1.38-3.41,1.72-5.93,3.21-8.51,4.69-2.23,1.28-4.49,2.56-7.41,4-1.72.83-4.29,2.06-7.58,3.37-.71.71-1.6,1.77-2.34,3.2-.94,1.77-1.34,3.4-1.49,4.52.71.43,1.8.97,3.2,1.29.82.18,1.6.24,2.29.24Z"></path>
  <path class="cls-1" d="m413.83,143.85c1.46.77,2.93.97,4.09.97.86,0,1.56-.11,1.97-.17.82-.14,1.55-.38,2.24-.68,1.73-1.76,3.4-3.11,4.67-4.11.39-.31.76-.6,1.07-.86.33-.28.64-.52.95-.78,1.75-1.96,3.8-4.26,6.59-6.78,2.63-2.37,4.75-3.86,6.49-5.06.34-.23.49-.66.34-1.03-.26-.77-.34-1.92-.83-2.83-.49-.89-1-1.66-1.49-2.26-.18-.23-.44-.34-.7-.34-.2,0-.39.07-.55.2-1,.83-2.37,1.92-4.03,3.12-6.69,4.95-10.29,6.43-16.52,10.81-1.8,1.26-4.35,3.14-7.35,5.66-.34.29-.43.8-.17,1.17.6.91,1.63,2.12,3.23,2.97Z"></path>
  <path class="cls-1" d="m425.15,149.26c.97.43,1.89.54,2.6.54.53,0,.96-.06,1.2-.11,1.14-.76,2.33-1.61,3.53-2.53l.21-.24c1.79-1.98,3.63-3.89,5.47-5.67,1.37-1.32,2.79-2.61,4.26-3.88,1.94-2.42,3.52-4.75,4.79-6.86.23-.83.03-1.69-.57-2.29-.54-.56-1.22-.67-1.65-.67-.23,0-.38.03-.41.04-.91,1.03-2.43,2.63-4.43,4.43-3.96,3.57-6.45,4.86-9.95,7.66-.34.27-.69.56-1.06.86-1.43,1.18-3.61,2.76-5.89,5.13-.14.15-.28.29-.43.45-.37.43-.37,1.06.03,1.49.54.57,1.34,1.26,2.29,1.66Z"></path>
  <path class="cls-1" d="m437.96,151.06c1.28.48,2.45.58,3.26.58.15,0,.28,0,.4,0,1.83-1.29,3.12-2.57,3.89-3.46,2.72-2.94,1.8-3.32,6.35-9.15.66-.83,1.4-1.72,1.94-2.32.26-.29.17-.71-.14-.91-.43-.23-.94-.46-1.52-.66-1.26-.43-2.37-.51-3.14-.51-1.67,1.27-3.4,2.67-5.16,4.18-1.41,1.21-2.84,2.5-4.28,3.88-1.94,1.89-3.75,3.77-5.37,5.57.02.02.04.04.05.07.54.68,1.75,1.96,3.72,2.74Z"></path>
  <path class="cls-1" d="m449.14,155.18c1.64,0,2.97-.36,3.83-.66.71-.94,1.43-1.94,2.14-3,2.83-4.2,4.97-8.35,6.58-12.15-.29-.37-.83-.89-1.6-1.32-1.08-.59-2.12-.72-2.83-.72-.25,0-.46.01-.62.03-1.69,2.17-3.37,4.49-5.09,7-2.37,3.52-4.43,6.92-6.23,10.15.71.26,1.6.51,2.66.6.4.04.8.06,1.17.06Z"></path>
  <path class="cls-1" d="m456.37,158.95c.57.25,1.14.35,1.7.35,1.76,0,3.39-.99,4.3-1.46.2-.06.34-.17.43-.31.97-1.49,1.94-2.4,2.92-4.15,1.89-3.34,3.49-6.6,4.83-9.66.14-.34.09-.74-.17-1.03-.49-.57-1.26-1.29-2.32-1.86-.91-.49-1.77-.74-2.46-.89-.06-.01-.12-.02-.18-.02-.4,0-.79.25-.94.65-.74,1.97-1.46,3.54-2.03,4.6-2.09,4.09-3.77,5.8-5.66,10.15-.4.94-.71,1.77-.94,2.43-.17.49.06,1,.51,1.2Z"></path>
  <path class="cls-1" d="m463.3,170.03c.06,0,.12,0,.19-.02.74-.17,1.54-.17,2.06-.63,11.01-10.09,12.98-18.04,13.38-20.36-.03-.63-.23-2.29-1.49-3.86-1.03-1.2-2.2-1.77-2.77-2-.43.54-1.06,1.34-1.77,2.34-.94,1.34-3.77,5.46-7.15,14.58-.8,2.14-2.32,5.49-3.26,8.83-.15.57.27,1.11.81,1.11Z"></path>
  <path class="cls-1" d="m587.88,82.65c-.37,0-.74-.02-1.11-.03-16.63-.47-35.94-3.29-39.4-3.29s-22.67.26-21.81,6.78c.19,1.44.58,2.59,1.08,3.57.65.81,1.26,1.69,1.83,2.64,1.63,1.86,3.44,3.36,4.15,6.28,2.34,9.78-1.26,20.64-2.63,24.61-.15.42.19.78.55.78.13,0,.27-.05.39-.15,1.17-1.07,2.98-3.11,4.74-5.46.28-.72.76-1.48,1.53-2.14.73-1.08,1.42-2.18,1.99-3.24,0-.02.02-.03.03-.05.1-.4.23-.75.37-1.04.16-.33.35-.63.57-.92.76-1.89.42-2.55.26-4.19-.2-2.09-.8-1.37-1.34-2.2-1.17-1.8-.2-3.03-.49-5.8-.31-3.26,1.29-4.4,2.77-7.06.72-1.31,2.34-2.19,4.52-2.75,1.16-.74,2.56-1.15,4.06-1.15.59,0,1.19.06,1.78.18.44.05.89.1,1.35.15.37,0,.74-.01,1.11-.01,3.73,0,7.82.33,11.68.81,1.1.14,2.19.27,3.27.39,3.9.17,7.75.27,11.47.27.68,0,1.35,0,2.02,0l2.37-.02-.17,1.02c.21,0,.42.02.63.02.56-.24,1.1-.35,1.54-.36l20.52-1.69,3.01-.25,17.09-1.41h.01c1.47-.17,2.84-.35,4.1-.55.89-.15,1.84-.6,2.78-1.22,4.25-2.8,8.3-9.23,5.89-9.23-.12,0-.26.02-.41.05-8.56,1.9-15.32,3.31-21.15,4.33-9.95,1.75-17.18,2.38-26.02,2.38-1.59,0-3.23-.02-4.95-.06Z"></path>
  <path class="cls-1" d="m568.98,91.35c-2.55-.11-5.13-.26-7.78-.45-2.75-.21-5.44-.45-8.07-.74-.58-.06-1.16-.11-1.73-.18-.49-.11-.98-.16-1.46-.16-1.22,0-2.35.35-3.24,1-.27.2-.52.42-.74.67-.49.57-.77,1.2-.91,1.72-.09.34.11.71.49.8,4.27,1.09,8.76,2.1,13.41,3.02,6.31,1.06,12.38,1.62,16.88,1.92,1.65-.41,3.45-1.24,4.84-2.91,1.01-1.22,1.51-2.5,1.78-3.51.09-.34.15-.65.19-.92-.67,0-1.35,0-2.03,0-3.76,0-7.65-.1-11.63-.28Z"></path>
  <path class="cls-1" d="m540.79,97.14c-.43,1.26,0,2.34.09,2.6,5.75,2.26,11.86,4.49,18.33,6.55,3.46,1.11,6.86,2.12,10.18,3.06,3.29-.06,6.06-1.77,7.03-4.32.14-.36.27-.72.38-1.07-.04-.35-.06-.71-.03-1.1.05-.56.19-1.12.38-1.55.04-.09.08-.17.13-.25,0,0,0,0,0,0-.4-.02-.82-.05-1.23-.08-5.27-.34-11.46-.95-17.6-1.99-.58-.1-1.17-.2-1.75-.3-5.23-.94-10.06-2.12-14.49-3.34-.23.17-1,.71-1.4,1.8Z"></path>
  <polygon class="cls-1" points="541.6 94.54 541.58 94.55 541.79 94.82 542.19 95.34 541.8 94.81 541.6 94.54"></polygon>
  <path class="cls-1" d="m558.58,116.07c2.23.74,3.26,1.03,5.26,1.43.07,0,.47.06,1.02.06.94,0,2.33-.14,3.4-.83.25-1.17.8-2.37,1.76-3.35.04-.05.09-.09.14-.13.03-.43,0-.75,0-.86-3.06-.77-6.26-1.63-9.52-2.66-6.52-2.03-12.41-4.32-17.73-6.66-.11.31-.23.66-.29,1.03-.31,1.6.57,2.89.86,3.75,3.8,2.83,8.46,6.06,15.09,8.23Z"></path>
  <path class="cls-1" d="m541.39,112.78c-.14.3-.23.59-.28.87-.13.68-.04,1.25.03,1.56l.31.31c.19.19.39.38.59.58,3.2,2.54,6.8,5.13,10.88,7.63,1.92,1.17,3.23,1.97,5.06,2.94.37.05,1.1.2,1.87.2.55,0,1.12-.07,1.59-.31,1.89-.91,3.6-3.4,3.49-5.89-3.14-1.03-7.15-2.06-10.78-3.72-4.17-1.92-7.8-3.95-10.95-5.89-.19.08-.78.35-1.29.94-.19.21-.37.47-.51.77Z"></path>
  <path class="cls-1" d="m539.91,116.97c-.32.13-.71.29-1.12.55-.04.02-.06.05-.1.08-.7.5-1.06,1.14-1.25,1.75-.23.73-.22,1.4-.28,1.69,1.46,1.94,2.54,4,4.49,6.09,2.72,2.97,5.37,5.32,7.86,7.38.48.13,1.15.26,1.93.26.46,0,.97-.05,1.5-.18,2.63-.6,4.2-2.52,4.92-3.69.26-.43.11-1-.34-1.23-3.12-1.57-6.66-3.66-10.35-6.46-2.5-1.91-4.63-3.81-6.47-5.62-.23-.22-.46-.45-.68-.67-.03.01-.08.03-.11.05Z"></path>
  <path class="cls-1" d="m533.48,124.5c-.49.49-.77,1-.94,1.4,1.11,3,2.74,6.72,6.78,10.03.71.57,1.49,2.29,2.2,2.72.05.02.12.03.21.03.53,0,1.68-.32,2.73-.54.91-.2,2.23-.69,3.06-1.09.4-.2.46-.71.14-1-1.49-1.29-3.95-3.2-5.09-4.49-2.89-3.29-4.83-5.49-6.69-8.46-.54.11-1.54.49-2.4,1.4Z"></path>
  <path class="cls-1" d="m531.46,134.11c1.05,2.43,1.54,4.66,1.75,6.4.16.13,1.03.95,2.33.95.08,0,.16,0,.25,0,1.23-.09,2.32-.86,2.86-2-1.97-2.57-4.23-5.06-6.2-8-.66-.97-1-2.2-1.57-3.14-.15.02-.47.08-.78.28.9,1.76,1.31,3.64,1.37,5.53Z"></path>
  <polygon class="cls-1" points="530.7 127.32 530.87 128.3 530.71 127.32 530.7 127.32"></polygon>
  <path class="cls-1" d="m635.48,91.85c-.43-.4-.97-.86-1.66-1.29-2.37-1.49-4.8-1.63-6.03-1.63-.02,0-.04,0-.06,0-3.89.32-7.79.64-11.68.96-9.65.79-19.3,1.59-28.94,2.38-.12,0-.64.05-1.18.37-.2.12-.41.28-.59.49-.43.46-.57,1-.63,1.4-.04.3.12.55.37.69.21.04.43.08.65.12,3.78.14,6.85.23,8.91.56,10.02,1.65,14.68,2.37,21.59,2.73,1.22.03,2.43.06,3.65.08.67,0,1.33.01,1.99.01,1.66,0,3.4-.02,5.32-.07h.58s.25.14.25.14c.45-.02.86-.04,1.22-.05,1.11-.57,2.69-1.54,4.2-3.12.08-.08.14-.15.21-.23.86-.92,1.49-1.84,1.96-2.63.17-.29.14-.69-.11-.91Z"></path>
  <path class="cls-1" d="m629.71,103.89c-.15-1.56-1.52-2.61-2.23-3.07-.1-.06-.19-.12-.25-.16-1.76.04-3.55.07-5.37.07-.67,0-1.34,0-2.01-.01-1.28-.01-2.55-.05-3.81-.08-10.98-.31-21.2-1.54-30.55-3.29-.32-.06-.64-.12-.96-.18-.4-.08-.8-.15-1.19-.22-.14.03-.8.2-1.23.86-.26.4-.29.8-.29,1,3.46,1.26,7.06,2.49,10.81,3.66,10.75,3.34,20.93,5.66,30.36,7.29,4.37-.57,6.98-3.52,6.72-5.86Z"></path>
  <path class="cls-1" d="m616.64,121.25c4.04,0,7.43-2.81,7.64-5.3.26-2.69-3.06-4.29-3.29-4.43-6.78-.91-14.27-2.43-22.36-4.35-8.35-2-12.06-3.83-18.27-5.69-.13-.04-.25-.06-.37-.06-.25,0-.47.08-.66.23-.14.11-.26.25-.34.43-.11.26-.2.6-.23.94-.03.4.01.76.09,1.08.19.77.59,1.3.71,1.44.11.05.22.1.33.15.27.08.53.2.78.35,1.73.77,3.46,1.53,5.18,2.31,5.27,2.33,10.52,4.62,15.75,6.89,1.36.54,2.8,1.15,4.4,1.89,3.12,1.35,6.25,2.7,9.36,4.03.43.06.86.1,1.28.1Z"></path>
  <path class="cls-1" d="m608.52,128.33c.67.17,1.31.25,1.92.25,2,0,3.6-.87,4.17-2.14.09-.23.31-.83.17-1.72-.09-.46-.37-.86-.77-1.11-1.32-.8-3.23-1.86-5.55-3.06-1.06-.54-2.05-1.02-2.99-1.46-1.71-.8-3.25-1.45-4.69-2.03-4.54-1.81-8.14-2.87-13.31-5.43-1.91-.94-4.59-1.6-7.67-3.79,0,0-.01,0-.02-.01-.16-.11-.35-.19-.54-.24-.14-.04-.28-.06-.42-.06-.21,0-.42.04-.62.13-.51.23-1.14.6-1.74,1.17-.34.34-.63.69-.86,1.03-.49.71-.29,1.72.43,2.2.77.54,1.72,1.17,2.8,1.86.65.41,1.3.81,1.95,1.2,2.6,1.34,4.71,2.54,6.73,3.71,2.42,1.23,4.67,2.28,6.53,3.1,3.72,1.63,6.92,3.66,14.15,6.29.11.03.2.09.31.11Z"></path>
  <path class="cls-1" d="m600.99,137.88c.69,0,1.45-.07,2.27-.26,1.4-.31,2.49-.86,3.2-1.29-.17-1.11-.54-2.74-1.49-4.52-.74-1.46-1.63-2.52-2.34-3.23-3.29-1.32-5.86-2.52-7.58-3.37-3.36-1.65-5.86-3.11-8.44-4.6-2.06-1.19-4.17-2.4-6.8-3.75-1.07-.55-2.21-1.11-3.49-1.71-1.4-.66-2.57-1.17-3.29-1.49-.27.11-.63.3-1,.59-.19.14-.38.3-.57.5-.85.87-1.28,2.02-1.36,3.06-.03.43-.01.84.07,1.2.49,2,2.97,2.92,4.92,3.75,4.97,2.14,1.97,2,15.55,10.21,0,0,.09.06,7.75,4.6.6.14,1.5.31,2.59.31Z"></path>
  <path class="cls-1" d="m587.74,146.23c.42.07,1.11.18,1.96.18,1.17,0,2.63-.2,4.1-.98,1.6-.83,2.63-2.06,3.23-2.97.26-.37.17-.89-.17-1.17-2.94-2.49-5.52-4.37-7.32-5.6-6.2-4.35-9.83-5.86-16.52-10.81-1.66-1.23-3.03-2.32-4.03-3.12-.17-.14-.38-.2-.58-.2-.26,0-.52.12-.68.34-.49.63-1,1.37-1.49,2.26-.51.91-.57,2.09-.83,2.83-.14.37,0,.8.34,1.03,1.74,1.2,3.86,2.69,6.49,5.06,2.74,2.48,4.75,4.74,6.48,6.67.35.28.71.57,1.09.89.33.27.7.57,1.1.89,1.26,1,2.93,2.34,4.65,4.08.67.28,1.38.5,2.17.63Z"></path>
  <path class="cls-1" d="m578.73,151.29c.24.05.67.11,1.2.11.72,0,1.64-.12,2.6-.54.94-.4,1.74-1.09,2.29-1.66.4-.4.4-1.06.03-1.49-.14-.15-.28-.28-.41-.43-2.28-2.36-4.47-3.93-5.9-5.12-.41-.35-.81-.66-1.19-.97-3.43-2.72-5.91-4.03-9.81-7.55-2-1.8-3.52-3.4-4.43-4.43-.03,0-.17-.03-.37-.03-.42,0-1.13.1-1.68.66-.6.6-.8,1.46-.57,2.29,1.33,2.22,3.02,4.7,5.11,7.25,1.32,1.16,2.63,2.34,3.9,3.57,1.88,1.8,3.56,3.55,5.11,5.33,1.42,1.12,2.81,2.12,4.14,3.01Z"></path>
  <path class="cls-1" d="m566.01,153.37c.12,0,.26,0,.4,0,.81,0,1.97-.09,3.26-.58,2.03-.77,3.26-2.12,3.77-2.8-.08-.09-.16-.18-.24-.27-1.54-1.77-3.23-3.54-5.11-5.34-1.33-1.28-2.65-2.48-3.96-3.61-1.87-1.62-3.71-3.12-5.47-4.45-.77,0-1.89.09-3.14.51-.57.2-1.09.43-1.52.66-.34.17-.4.63-.14.91.54.57,1.29,1.46,1.94,2.32,4.55,5.83,3.66,6.2,6.32,9.18.8.89,2.06,2.17,3.89,3.46Z"></path>
  <path class="cls-1" d="m554.66,156.18c.86.3,2.2.66,3.83.66.37,0,.77-.02,1.17-.06,1.06-.11,1.94-.34,2.66-.6-1.77-3.23-3.83-6.63-6.23-10.15-1.69-2.52-3.37-4.83-5.06-7-.14-.01-.33-.03-.55-.03-.72,0-1.79.12-2.91.71-.77.43-1.29.91-1.63,1.32,1.6,3.8,3.75,7.95,6.58,12.15.71,1.06,1.43,2.06,2.14,3Z"></path>
  <path class="cls-1" d="m545.14,146.83c-.54-1.09-1.29-2.63-2.03-4.6-.15-.4-.52-.65-.93-.65-.06,0-.12,0-.19.02-.69.14-1.54.37-2.46.89-1.06.57-1.83,1.32-2.32,1.86-.26.29-.31.69-.17,1.03,1.37,3.09,2.94,6.32,4.83,9.66.97,1.72,1.94,2.66,2.92,4.15.09.14.23.26.37.34.89.46,2.55,1.46,4.32,1.46.56,0,1.13-.1,1.69-.35.46-.2.69-.74.51-1.2-.17-.71-.49-1.54-.89-2.46-1.86-4.35-3.57-6.06-5.66-10.15Z"></path>
  <path class="cls-1" d="m542.19,171.04c.49.46,1.32.46,2.06.63.06.01.13.02.19.02.54,0,.97-.54.81-1.11-.97-3.34-2.52-6.69-3.32-8.83-3.37-9.12-6.2-13.24-7.15-14.58-.71-1-1.34-1.83-1.77-2.34-.6.23-1.74.8-2.72,2-1.26,1.57-1.46,3.23-1.49,3.86.4,2.32,2.34,10.29,13.38,20.36Z"></path>
  <path class="cls-1" d="m485.99,62.09c-.29,0-.51.23-.51.51v3.09h-.06c0,.43.34.77.77.8l7.52.8.49,4.6c.09.89.43,2.17,1,3.52.43,1,1.52,3,1.52,3l-.02,1.95c2.12-.44,4.01-.64,5.43-.71.02,0,.58-.03,1.51-.03h.03c.9,0,1.46.03,1.47.03,1.43.07,3.33.26,5.47.7l-.02-1.87s1.09-2,1.52-3c.57-1.37.91-2.63,1-3.52l.49-4.6,7.52-.8c.43-.03.77-.37.77-.8v-3.06c0-.29-.23-.51-.51-.51-4.17-.11-8.81-.57-13.07-.71-1.15-2.51-1.31-7.54-1.29-7.54,0,0,.01.12.02.4-.27-8.05.05-12.51.95-19.14l1.72.03c.34,0,.66-.29.66-.63v-6.6c0-.34-.26-.6-.57-.63-.71-.06-1.43-.11-2.14-.17-.03-.34-.26-1.8-1.57-2.89-.86-.71-1.77-.89-2.29-.94v-.11c-.4.03-1.49.14-2.49.97-1.32,1.06-1.54,2.54-1.57,2.89l-2.14.17c-.31.03-.57.31-.57.63v6.6c0,.34.29.63.66.63l1.72-.03c.91,6.65,1.22,11.11.95,19.13.01-.27.02-.4.02-.4.03,0-.14,5.06-1.29,7.54-4.26.14-8.86.57-13.07.71Z"></path>
  <path class="cls-1" d="m509.74,163.24h-13.46l-.11,21.67c0,.1,0,.22,0,.33,0,2.26.49,6.14,1.24,10.08.45,2.37.99,4.76,1.56,6.81,1.4,4.92,2.89,5.89,4.52,8.41v.4c.06-.06.09-.14.14-.2.03.06.06.09.09.14v-.26c1.66-2.54,3.14-3.49,4.52-8.41.57-2.05,1.11-4.43,1.56-6.81.75-3.93,1.24-7.81,1.24-10.07,0-.11,0-.23,0-.33l-.08-21.76h-1.2Z"></path>
  <path class="cls-1" d="m477.98,99.06c-1.31,4.18-1.36,8.54-.9,12.57.5,4.36,1.59,8.35,2.34,11.3.53,2.08.89,3.65.76,4.49-.03.19-.09.35-.17.46-.26.33-.49.68-.7,1.03-.12.19-.23.39-.33.59-.72,1.39-1.07,2.89-1.15,4.4-.38,6.86,4.65,14.18,5.5,14.94.43.38,1.05.53,1.76.53,1.94,0,4.52-1.05,5.47-1.05.36,0,.48.15.26.55-.77,1.46-1.49,12.38-1.49,12.38h2l.97-3.8,1.72-.03.32,3.55.03.28h3.52l.03-.28.32-3.37,1.17-.17.16,3.55v.28h2.84v-.28s.14-3.63.14-3.63h2.32l.13,3.63v.28h2.84v-.28s.17-3.55.17-3.55l1.17.17.32,3.37.03.28h3.4l.02-.22.32-3.61,1.72.03.97,3.8h2s-.71-10.92-1.49-12.38c-.22-.42-.09-.57.27-.57.96,0,3.55,1.05,5.48,1.05.7,0,1.31-.14,1.73-.51.82-.74,5.56-7.62,5.52-14.27,0-.9-.1-1.8-.3-2.68-.17-.74-.43-1.46-.77-2.16-.2-.42-.43-.83-.7-1.23-.14-.21-.28-.41-.44-.61-1.52-1.92,5.98-16.21,2.03-28.82-.66-2.11-1.51-3.97-2.49-5.6-.57-.95-1.18-1.82-1.83-2.62-3.56-4.39-8.19-6.71-12.35-7.92-2.96-.86-5.68-1.17-7.6-1.26,0,0-.51-.03-1.37-.03h-.06c-.86,0-1.37.03-1.37.03-1.9.1-4.61.41-7.57,1.27-6.23,1.81-13.55,6.09-16.67,16.14Zm25.9,47.63c-.51.2-1.17.54-1.89,1.11-.66.51-1.14,1.09-1.49,1.57-.05.07-.12.1-.19.1-.12,0-.24-.1-.24-.25-.11-1.86-.03-5.69,2.54-8.46.34-.37.77-.69,1.26-.97.49.31.94.63,1.26.97,2.57,2.77,2.66,6.6,2.54,8.46,0,.16-.11.25-.23.25-.07,0-.15-.03-.2-.11-.34-.49-.83-1.06-1.49-1.57-.69-.54-1.34-.91-1.89-1.11Zm17.15-16.27c.09,0,.2,0,.29.06,1.72.69,2.26,1.8,2.4,2.14,1,2.17-.26,5.72-3.52,7.98-.09.06-.17.09-.29.11-.48.07-1.2.16-2.08.16-1.82,0-4.34-.36-6.86-1.9-1.54-.94-2.69-2.12-3.49-3.09-.29-.37-.2-.94.2-1.17,1.6-.91,3.57-1.86,5.86-2.66,2.86-.97,5.43-1.43,7.49-1.63Zm-35.05.03c.09-.03.2-.06.29-.06,2.06.2,4.63.66,7.49,1.63,2.32.77,4.26,1.74,5.86,2.66.43.23.54.8.23,1.2-.8.97-1.94,2.14-3.49,3.09-2.5,1.55-4.98,1.91-6.8,1.91-.9,0-1.64-.09-2.15-.16-.09,0-.2-.06-.29-.11-3.26-2.26-4.52-5.8-3.54-8,.14-.34.69-1.46,2.4-2.14Z"></path>
  <path class="cls-1" d="m708.72,837.57l37.15-8.97c.24-.06.28-.38.05-.5l-21.67-10.92c-.09-.04-.15-.14-.15-.24l-.27-24.27c0-.25-.31-.36-.47-.17l-24.4,29.42c-.14.16-.42.11-.46-.11l-8.97-37.15c-.06-.24-.38-.28-.5-.05l-10.92,21.67c-.04.09-.14.15-.24.15l-24.27.27c-.25,0-.36.31-.17.47l29.42,24.4c.16.14.11.42-.11.46l-37.15,8.97c-.24.06-.28.38-.05.5l21.67,10.92c.09.04.15.14.15.24l.27,24.27c0,.25.31.36.47.17l24.4-29.42c.14-.16.42-.11.46.11l8.97,37.15c.06.24.38.28.5.05l10.92-21.67c.05-.08.14-.14.24-.15l24.27-.27c.25,0,.36-.31.17-.47l-29.42-24.4c-.16-.14-.11-.42.11-.46Z"></path>
  <polygon class="cls-1" points="348.45 828.35 287.32 789.29 256.48 837.57 259.24 839.34 288.71 793.22 344.37 828.78 314.91 874.9 317.61 876.63 348.45 828.35"></polygon>
  <path class="cls-1" d="m329.85,789.6c-1.39.62-2.27.62-4.16,2.33-2.16,1.93-4.92,5.01-5.81,6.5l-4.45,6.99,6.24,3.99,4.44-6.94c.96-1.44,2.6-5.21,3.45-8,.73-2.45.37-3.26.36-4.76l.11-.17s-.07.04-.12.05c0-.03,0-.05,0-.09l-.07.11Z"></path>
  <path class="cls-1" d="m293.77,877.21l2.41-3.78c-3.76-2.13-7.48-4.34-11.15-6.62l9.95-15.59-6.16-3.93-9.91,15.61c-3.67-2.4-7.29-4.89-10.86-7.44l-2.41,3.78c4.67,2.02,9.13,4.34,13.41,6.98-4.18,6.62-15.2,23.77-16.6,25.44l-.95-.62c-.14-.09-.36-.06-.45.09l-.79,1.24c-.09.14-.05.32.07.42.29.21.58.43.86.66-.08.15-.38.83-.12,1.64.16.53.5.85.71,1.01l-.02.03c.18.1.67.34,1.31.26.83-.09,1.33-.66,1.44-.8.32.17.63.34.96.5.14.07.32.02.41-.12l.78-1.22c.09-.14.05-.35-.11-.45l-.97-.6c.92-1.99,11.87-19.22,16.12-25.81,4.24,2.8,8.27,5.89,12.1,9.31Z"></path>
  <path class="cls-1" d="m341.31,829.41c-8.15-5.72-16.41-11.28-24.8-16.65l-23.14,36.21,3.24,2.07-6.7,10.49c8.32,4.62,15.29,9.42,21.72,14.32l29.67-46.44Z"></path>
  <path class="cls-1" d="m288.51,845.87l3.24,2.07,23.14-36.21c-8.39-5.34-16.9-10.51-25.53-15.5l-29.67,46.44c6.81,3.17,14.3,8.02,22.1,13.73l6.72-10.52Z"></path>
</svg>
